<svg width="429" height="178" viewBox="0 0 429 178" fill="none" xmlns="http://www.w3.org/2000/svg">
<path d="M360.5 0H68.5C30.6685 0 0 30.6685 0 68.5C0 106.332 30.6685 137 68.5 137H360.5C398.332 137 429 106.332 429 68.5C429 30.6685 398.332 0 360.5 0Z" fill="white"/>
<path d="M355.993 173.419L348.924 117.737L385.11 125.433L355.993 173.419Z" fill="white"/>
<path d="M50 80.16C48.3787 80.16 46.896 79.84 45.552 79.2C44.2293 78.5387 43.088 77.664 42.128 76.576C41.168 75.488 40.4213 74.2613 39.888 72.896C39.376 71.5093 39.12 70.0907 39.12 68.64C39.12 67.1253 39.3973 65.6853 39.952 64.32C40.5067 62.9333 41.2747 61.7067 42.256 60.64C43.2373 59.552 44.3893 58.6987 45.712 58.08C47.056 57.44 48.5067 57.12 50.064 57.12C51.6853 57.12 53.1573 57.4507 54.48 58.112C55.824 58.7733 56.9653 59.6587 57.904 60.768C58.864 61.8773 59.6 63.1147 60.112 64.48C60.6453 65.8453 60.912 67.2427 60.912 68.672C60.912 70.1653 60.6453 71.5947 60.112 72.96C59.5787 74.3253 58.832 75.5413 57.872 76.608L60.848 80H57.392L55.92 78.336C55.088 78.912 54.1707 79.36 53.168 79.68C52.1653 80 51.1093 80.16 50 80.16ZM50.032 76.928C50.736 76.928 51.3973 76.832 52.016 76.64C52.6347 76.448 53.2107 76.1813 53.744 75.84L50.48 72.096H53.936L55.6 73.984C56.1333 73.2373 56.5387 72.3947 56.816 71.456C57.0933 70.5173 57.232 69.5787 57.232 68.64C57.232 67.2107 56.9333 65.8667 56.336 64.608C55.76 63.328 54.928 62.304 53.84 61.536C52.752 60.7467 51.4827 60.352 50.032 60.352C48.88 60.352 47.856 60.5867 46.96 61.056C46.064 61.5253 45.3067 62.1653 44.688 62.976C44.0693 63.7653 43.5893 64.6507 43.248 65.632C42.928 66.6133 42.768 67.616 42.768 68.64C42.768 70.0693 43.0667 71.424 43.664 72.704C44.2613 73.9627 45.0933 74.9867 46.16 75.776C47.248 76.544 48.5387 76.928 50.032 76.928ZM63.952 73.504V63.264H67.472V72.8C67.472 75.808 68.5387 77.312 70.672 77.312C71.6747 77.312 72.624 77.0027 73.52 76.384C74.416 75.744 75.1093 74.848 75.6 73.696V63.264H79.12V76.032C79.12 76.4373 79.1947 76.7253 79.344 76.896C79.4933 77.0667 79.7387 77.1627 80.08 77.184V80C79.7173 80.064 79.4187 80.1067 79.184 80.128C78.9493 80.1493 78.7253 80.16 78.512 80.16C77.872 80.16 77.3387 79.9893 76.912 79.648C76.4853 79.3067 76.24 78.848 76.176 78.272L76.112 76.608C75.3653 77.824 74.3947 78.752 73.2 79.392C72.0053 80.0107 70.6933 80.32 69.264 80.32C67.5147 80.32 66.192 79.744 65.296 78.592C64.4 77.44 63.952 75.744 63.952 73.504ZM91.196 80.32C89.468 80.32 87.9533 79.9253 86.652 79.136C85.3507 78.3467 84.3373 77.3013 83.612 76C82.8867 74.6773 82.524 73.2373 82.524 71.68C82.524 70.1013 82.8867 68.6507 83.612 67.328C84.3373 66.0053 85.3507 64.9493 86.652 64.16C87.9533 63.3707 89.4787 62.976 91.228 62.976C92.9773 62.976 94.492 63.3813 95.772 64.192C97.052 64.9813 98.0333 66.0267 98.716 67.328C99.42 68.6293 99.772 70.0267 99.772 71.52C99.772 72.0533 99.74 72.48 99.676 72.8H86.268C86.332 73.7813 86.5987 74.6453 87.068 75.392C87.5587 76.1173 88.1667 76.6933 88.892 77.12C89.6387 77.5253 90.4493 77.728 91.324 77.728C92.2627 77.728 93.148 77.4933 93.98 77.024C94.812 76.5547 95.388 75.936 95.708 75.168L98.716 76.032C98.14 77.2907 97.18 78.3253 95.836 79.136C94.5133 79.9253 92.9667 80.32 91.196 80.32ZM86.172 70.464H96.284C96.1987 69.504 95.9213 68.6613 95.452 67.936C94.9827 67.1893 94.3747 66.6133 93.628 66.208C92.9027 65.7813 92.092 65.568 91.196 65.568C90.3213 65.568 89.5107 65.7813 88.764 66.208C88.0387 66.6133 87.4413 67.1893 86.972 67.936C86.5027 68.6613 86.236 69.504 86.172 70.464ZM119.574 80.32C118.294 80.32 117.131 80.0213 116.086 79.424C115.04 78.8053 114.23 77.984 113.654 76.96V80H110.549V56.64H114.07V66.432C114.731 65.3653 115.552 64.5227 116.534 63.904C117.536 63.2853 118.71 62.976 120.054 62.976C121.547 62.976 122.848 63.3813 123.958 64.192C125.067 65.0027 125.931 66.08 126.55 67.424C127.168 68.7467 127.478 70.176 127.478 71.712C127.478 73.2907 127.126 74.7307 126.422 76.032C125.739 77.3333 124.8 78.3787 123.606 79.168C122.411 79.936 121.067 80.32 119.574 80.32ZM118.646 77.312C119.67 77.312 120.576 77.056 121.366 76.544C122.155 76.0107 122.763 75.3173 123.19 74.464C123.638 73.6107 123.862 72.6933 123.862 71.712C123.862 70.7093 123.648 69.7707 123.222 68.896C122.816 68.0213 122.24 67.3173 121.494 66.784C120.747 66.2507 119.883 65.984 118.902 65.984C117.835 65.984 116.875 66.336 116.022 67.04C115.168 67.744 114.518 68.5973 114.07 69.6V74.016C114.24 74.656 114.571 75.2213 115.062 75.712C115.552 76.2027 116.118 76.5973 116.758 76.896C117.419 77.1733 118.048 77.312 118.646 77.312ZM138.163 80.32C136.414 80.32 134.889 79.9253 133.587 79.136C132.307 78.3253 131.315 77.2693 130.611 75.968C129.907 74.6453 129.555 73.2053 129.555 71.648C129.555 70.0907 129.907 68.6613 130.611 67.36C131.337 66.0373 132.339 64.9813 133.619 64.192C134.921 63.3813 136.435 62.976 138.163 62.976C139.891 62.976 141.395 63.3813 142.675 64.192C143.977 64.9813 144.979 66.0373 145.683 67.36C146.409 68.6613 146.771 70.0907 146.771 71.648C146.771 73.2053 146.419 74.6453 145.715 75.968C145.011 77.2693 144.009 78.3253 142.707 79.136C141.427 79.9253 139.913 80.32 138.163 80.32ZM133.171 71.68C133.171 72.7467 133.395 73.7067 133.843 74.56C134.291 75.4133 134.889 76.0853 135.635 76.576C136.382 77.0667 137.225 77.312 138.163 77.312C139.081 77.312 139.913 77.0667 140.659 76.576C141.427 76.064 142.035 75.3813 142.483 74.528C142.931 73.6747 143.155 72.7147 143.155 71.648C143.155 70.5813 142.931 69.6213 142.483 68.768C142.035 67.9147 141.427 67.2427 140.659 66.752C139.913 66.24 139.081 65.984 138.163 65.984C137.246 65.984 136.403 66.24 135.635 66.752C134.889 67.2427 134.291 67.9253 133.843 68.8C133.395 69.6533 133.171 70.6133 133.171 71.68ZM175.493 80H171.973V70.624C171.973 69.088 171.717 67.9573 171.205 67.232C170.693 66.4853 169.947 66.112 168.965 66.112C167.984 66.112 167.067 66.4853 166.213 67.232C165.381 67.9573 164.795 68.9067 164.453 70.08V80H160.933V70.624C160.933 69.0453 160.677 67.904 160.165 67.2C159.653 66.4747 158.917 66.112 157.957 66.112C156.976 66.112 156.059 66.4747 155.205 67.2C154.373 67.9253 153.776 68.8747 153.413 70.048V80H149.893V63.264H153.093V66.624C153.733 65.4507 154.597 64.5547 155.685 63.936C156.773 63.296 158.011 62.976 159.397 62.976C160.784 62.976 161.872 63.3387 162.661 64.064C163.472 64.7893 163.973 65.696 164.165 66.784C165.616 64.2453 167.717 62.976 170.469 62.976C171.792 62.976 172.816 63.296 173.541 63.936C174.267 64.5547 174.768 65.3867 175.045 66.432C175.344 67.456 175.493 68.576 175.493 69.792V80ZM196.768 79.136C196.32 79.3493 195.701 79.5947 194.912 79.872C194.122 80.128 193.28 80.256 192.384 80.256C191.274 80.256 190.314 79.9573 189.504 79.36C188.714 78.7627 188.32 77.792 188.32 76.448V65.984H186.112V63.264H188.32V57.76H191.84V63.264H195.488V65.984H191.84V75.328C191.882 75.9253 192.064 76.3627 192.384 76.64C192.725 76.896 193.141 77.024 193.632 77.024C194.122 77.024 194.592 76.9387 195.04 76.768C195.488 76.5973 195.818 76.4587 196.032 76.352L196.768 79.136ZM206.571 80.32C204.843 80.32 203.328 79.9253 202.027 79.136C200.726 78.3467 199.712 77.3013 198.987 76C198.262 74.6773 197.899 73.2373 197.899 71.68C197.899 70.1013 198.262 68.6507 198.987 67.328C199.712 66.0053 200.726 64.9493 202.027 64.16C203.328 63.3707 204.854 62.976 206.603 62.976C208.352 62.976 209.867 63.3813 211.147 64.192C212.427 64.9813 213.408 66.0267 214.091 67.328C214.795 68.6293 215.147 70.0267 215.147 71.52C215.147 72.0533 215.115 72.48 215.051 72.8H201.643C201.707 73.7813 201.974 74.6453 202.443 75.392C202.934 76.1173 203.542 76.6933 204.267 77.12C205.014 77.5253 205.824 77.728 206.699 77.728C207.638 77.728 208.523 77.4933 209.355 77.024C210.187 76.5547 210.763 75.936 211.083 75.168L214.091 76.032C213.515 77.2907 212.555 78.3253 211.211 79.136C209.888 79.9253 208.342 80.32 206.571 80.32ZM201.547 70.464H211.659C211.574 69.504 211.296 68.6613 210.827 67.936C210.358 67.1893 209.75 66.6133 209.003 66.208C208.278 65.7813 207.467 65.568 206.571 65.568C205.696 65.568 204.886 65.7813 204.139 66.208C203.414 66.6133 202.816 67.1893 202.347 67.936C201.878 68.6613 201.611 69.504 201.547 70.464ZM227.426 66.304C226.061 66.3467 224.845 66.6667 223.778 67.264C222.733 67.84 221.986 68.672 221.538 69.76V80H218.018V63.264H221.282V67.008C221.858 65.856 222.616 64.9387 223.554 64.256C224.493 63.552 225.485 63.168 226.53 63.104C226.722 63.104 226.893 63.104 227.042 63.104C227.192 63.104 227.32 63.1147 227.426 63.136V66.304ZM240.972 80L234.604 63.264H238.252L243.02 76.736L247.788 63.264H251.18L244.812 80H240.972ZM260.663 80.32C258.914 80.32 257.389 79.9253 256.087 79.136C254.807 78.3253 253.815 77.2693 253.111 75.968C252.407 74.6453 252.055 73.2053 252.055 71.648C252.055 70.0907 252.407 68.6613 253.111 67.36C253.837 66.0373 254.839 64.9813 256.119 64.192C257.421 63.3813 258.935 62.976 260.663 62.976C262.391 62.976 263.895 63.3813 265.175 64.192C266.477 64.9813 267.479 66.0373 268.183 67.36C268.909 68.6613 269.271 70.0907 269.271 71.648C269.271 73.2053 268.919 74.6453 268.215 75.968C267.511 77.2693 266.509 78.3253 265.207 79.136C263.927 79.9253 262.413 80.32 260.663 80.32ZM255.671 71.68C255.671 72.7467 255.895 73.7067 256.343 74.56C256.791 75.4133 257.389 76.0853 258.135 76.576C258.882 77.0667 259.725 77.312 260.663 77.312C261.581 77.312 262.413 77.0667 263.159 76.576C263.927 76.064 264.535 75.3813 264.983 74.528C265.431 73.6747 265.655 72.7147 265.655 71.648C265.655 70.5813 265.431 69.6213 264.983 68.768C264.535 67.9147 263.927 67.2427 263.159 66.752C262.413 66.24 261.581 65.984 260.663 65.984C259.746 65.984 258.903 66.24 258.135 66.752C257.389 67.2427 256.791 67.9253 256.343 68.8C255.895 69.6533 255.671 70.6133 255.671 71.68ZM279.977 80.32C278.249 80.32 276.735 79.9253 275.433 79.136C274.132 78.3253 273.119 77.2587 272.393 75.936C271.668 74.6133 271.305 73.1733 271.305 71.616C271.305 70.0587 271.657 68.6293 272.361 67.328C273.087 66.0053 274.089 64.9493 275.369 64.16C276.671 63.3707 278.207 62.976 279.977 62.976C281.705 62.976 283.188 63.36 284.425 64.128C285.684 64.8747 286.623 65.8773 287.241 67.136L283.817 68.224C283.433 67.52 282.889 66.976 282.185 66.592C281.503 66.1867 280.745 65.984 279.913 65.984C278.975 65.984 278.121 66.2293 277.353 66.72C276.607 67.1893 276.009 67.8507 275.561 68.704C275.135 69.5573 274.921 70.528 274.921 71.616C274.921 72.704 275.145 73.6747 275.593 74.528C276.063 75.3813 276.671 76.064 277.417 76.576C278.185 77.0667 279.028 77.312 279.945 77.312C280.799 77.312 281.609 77.088 282.377 76.64C283.145 76.192 283.657 75.648 283.913 75.008L287.369 76.032C286.815 77.2907 285.887 78.3253 284.585 79.136C283.284 79.9253 281.748 80.32 279.977 80.32ZM297.696 80.32C295.968 80.32 294.453 79.9253 293.152 79.136C291.851 78.3467 290.837 77.3013 290.112 76C289.387 74.6773 289.024 73.2373 289.024 71.68C289.024 70.1013 289.387 68.6507 290.112 67.328C290.837 66.0053 291.851 64.9493 293.152 64.16C294.453 63.3707 295.979 62.976 297.728 62.976C299.477 62.976 300.992 63.3813 302.272 64.192C303.552 64.9813 304.533 66.0267 305.216 67.328C305.92 68.6293 306.272 70.0267 306.272 71.52C306.272 72.0533 306.24 72.48 306.176 72.8H292.768C292.832 73.7813 293.099 74.6453 293.568 75.392C294.059 76.1173 294.667 76.6933 295.392 77.12C296.139 77.5253 296.949 77.728 297.824 77.728C298.763 77.728 299.648 77.4933 300.48 77.024C301.312 76.5547 301.888 75.936 302.208 75.168L305.216 76.032C304.64 77.2907 303.68 78.3253 302.336 79.136C301.013 79.9253 299.467 80.32 297.696 80.32ZM292.672 70.464H302.784C302.699 69.504 302.421 68.6613 301.952 67.936C301.483 67.1893 300.875 66.6133 300.128 66.208C299.403 65.7813 298.592 65.568 297.696 65.568C296.821 65.568 296.011 65.7813 295.264 66.208C294.539 66.6133 293.941 67.1893 293.472 67.936C293.003 68.6613 292.736 69.504 292.672 70.464ZM293.024 59.68L296.352 56.64H298.88L302.208 59.68L300.32 60.576L297.6 58.56L294.88 60.576L293.024 59.68ZM315.834 75.104C315.834 74.0373 316.132 73.1093 316.73 72.32C317.327 71.5093 318.159 70.8907 319.226 70.464C320.314 70.016 321.562 69.792 322.97 69.792C323.716 69.792 324.474 69.856 325.242 69.984C326.031 70.0907 326.724 70.2507 327.322 70.464V69.408C327.322 68.2347 326.97 67.3173 326.266 66.656C325.562 65.9947 324.548 65.664 323.226 65.664C322.308 65.664 321.423 65.824 320.57 66.144C319.716 66.464 318.831 66.9333 317.914 67.552L316.73 65.184C317.839 64.4587 318.948 63.9147 320.058 63.552C321.188 63.168 322.372 62.976 323.61 62.976C325.85 62.976 327.61 63.5733 328.89 64.768C330.191 65.9413 330.842 67.616 330.842 69.792V76.032C330.842 76.4373 330.906 76.7253 331.034 76.896C331.183 77.0667 331.428 77.1627 331.77 77.184V80C331.45 80.064 331.162 80.1067 330.906 80.128C330.65 80.1493 330.436 80.16 330.266 80.16C329.498 80.16 328.922 79.9787 328.538 79.616C328.175 79.232 327.962 78.8053 327.898 78.336L327.802 77.376C327.076 78.3147 326.148 79.04 325.018 79.552C323.887 80.064 322.746 80.32 321.594 80.32C320.484 80.32 319.492 80.096 318.618 79.648C317.743 79.1787 317.06 78.5493 316.57 77.76C316.079 76.9707 315.834 76.0853 315.834 75.104ZM326.49 76.128C327.044 75.5733 327.322 75.0507 327.322 74.56V72.64C326.063 72.1707 324.783 71.936 323.482 71.936C322.202 71.936 321.156 72.2027 320.346 72.736C319.556 73.248 319.161 73.9413 319.161 74.816C319.161 75.5413 319.45 76.2133 320.026 76.832C320.623 77.4293 321.476 77.728 322.586 77.728C323.332 77.728 324.058 77.5787 324.762 77.28C325.466 76.9813 326.042 76.5973 326.49 76.128ZM341.48 80.32C340.029 80.32 338.739 79.9253 337.608 79.136C336.499 78.3253 335.635 77.2693 335.016 75.968C334.397 74.6453 334.088 73.1947 334.088 71.616C334.088 70.0373 334.429 68.5973 335.112 67.296C335.816 65.9733 336.755 64.928 337.928 64.16C339.123 63.3707 340.467 62.976 341.96 62.976C343.24 62.976 344.392 63.2853 345.416 63.904C346.44 64.5227 347.261 65.3227 347.88 66.304V63.264H350.984V86.816H347.464V76.864C346.056 79.168 344.061 80.32 341.48 80.32ZM342.76 77.312C343.805 77.312 344.723 77.0133 345.512 76.416C346.301 75.7973 346.952 75.0293 347.464 74.112V69.696C347.315 69.0347 346.995 68.4267 346.504 67.872C346.013 67.296 345.427 66.8373 344.744 66.496C344.083 66.1547 343.421 65.984 342.76 65.984C341.757 65.984 340.872 66.2613 340.104 66.816C339.357 67.3493 338.76 68.0533 338.312 68.928C337.885 69.8027 337.672 70.7307 337.672 71.712C337.672 72.736 337.885 73.6747 338.312 74.528C338.76 75.3813 339.357 76.064 340.104 76.576C340.872 77.0667 341.757 77.312 342.76 77.312ZM355.046 73.504V63.264H358.566V72.8C358.566 75.808 359.632 77.312 361.766 77.312C362.768 77.312 363.718 77.0027 364.614 76.384C365.51 75.744 366.203 74.848 366.694 73.696V63.264H370.214V76.032C370.214 76.4373 370.288 76.7253 370.438 76.896C370.587 77.0667 370.832 77.1627 371.174 77.184V80C370.811 80.064 370.512 80.1067 370.278 80.128C370.043 80.1493 369.819 80.16 369.606 80.16C368.966 80.16 368.432 79.9893 368.006 79.648C367.579 79.3067 367.334 78.848 367.27 78.272L367.206 76.608C366.459 77.824 365.488 78.752 364.294 79.392C363.099 80.0107 361.787 80.32 360.358 80.32C358.608 80.32 357.286 79.744 356.39 78.592C355.494 77.44 355.046 75.744 355.046 73.504ZM374.706 60.512V56.64H378.226V60.512H374.706ZM374.706 80V63.264H378.226V80H374.706ZM383.128 71.904V57.056H386.648V71.904H383.128ZM383.128 80V75.616H386.648V80H383.128Z" fill="#036E49"/>
</svg>
