<svg width="516" height="487" viewBox="0 0 516 487" fill="none" xmlns="http://www.w3.org/2000/svg">
<path opacity="0.42" d="M515.648 339.234C513.778 378.004 480.598 408.494 445.258 424.554C409.918 440.614 370.738 446.844 335.488 463.104C323.878 468.454 312.748 474.874 300.678 479.104C289.741 482.794 278.353 484.981 266.828 485.604C256.701 486.199 246.546 486.139 236.428 485.424L233.558 485.224C224.398 484.557 215.268 483.594 206.168 482.334H206.078C195.188 480.794 184.348 478.774 173.638 476.334H173.568C144.697 469.719 116.649 459.922 89.9375 447.124C66.5418 435.723 44.2531 422.179 23.3575 406.664C4.91751 393.134 1.92752 384.084 0.517516 360.854C-1.21248 331.854 0.847516 301.634 15.1775 275.744C27.0875 254.234 46.5375 237.414 57.0175 215.174C58.9068 211.155 60.5107 207.008 61.8175 202.764C63.6872 196.632 65.1405 190.381 66.1675 184.054C70.0975 160.674 69.9275 136.054 77.1675 113.304C86.7275 83.3038 108.998 58.4438 135.528 41.5338C162.058 24.6238 192.648 15.1038 223.568 9.13379C247.998 4.54022 272.73 1.72284 297.568 0.703788C303.461 0.437121 309.348 0.250454 315.228 0.143787C324.568 -0.141188 333.916 0.109222 343.228 0.893787C352.409 1.64603 361.455 3.58553 370.138 6.66379C396.668 16.4738 416.848 39.5038 428.068 65.4638C439.288 91.4238 442.398 120.174 442.658 148.464C442.838 169.174 441.658 190.464 448.578 209.974C455.938 230.634 471.578 246.974 485.178 264.284C502.228 285.954 516.938 311.664 515.648 339.234Z" fill="#39B64B"/>
<path d="M382.788 403.524C382.328 402.654 381.838 401.824 381.338 401.044C378.111 395.841 376.545 389.779 376.848 383.664C377.058 379.384 378.168 374.934 376.668 370.914C374.798 365.914 369.218 363.044 363.868 362.844C358.518 362.644 353.348 364.584 348.408 366.654C331.039 373.945 314.553 383.185 299.268 394.194C293.738 398.194 288.268 402.464 284.098 407.844C277.098 416.844 274.248 429.304 279.148 439.844C281.018 443.844 283.698 447.774 287.728 449.604C290.488 450.673 293.439 451.167 296.398 451.054C325.259 451.526 353.439 442.269 376.398 424.774C379.218 422.604 383.208 419.704 384.628 416.304C386.348 412.054 384.868 407.424 382.788 403.524Z" fill="#39B64B"/>
<path opacity="0.58" d="M382.788 403.524C382.328 402.654 381.838 401.824 381.338 401.044C378.111 395.841 376.545 389.779 376.848 383.664C377.058 379.384 378.168 374.934 376.668 370.914C374.798 365.914 369.218 363.044 363.868 362.844C358.518 362.644 353.348 364.584 348.408 366.654C331.039 373.945 314.553 383.185 299.268 394.194C293.738 398.194 288.268 402.464 284.098 407.844C277.098 416.844 274.248 429.304 279.148 439.844C281.018 443.844 283.698 447.774 287.728 449.604C290.488 450.673 293.439 451.167 296.398 451.054C325.259 451.526 353.439 442.269 376.398 424.774C379.218 422.604 383.208 419.704 384.628 416.304C386.348 412.054 384.868 407.424 382.788 403.524Z" fill="url(#paint0_linear)"/>
<path d="M385.948 286.494C393.094 292.054 399.968 297.947 406.568 304.174C410.09 307.666 413.788 310.977 417.648 314.094C420.268 316.094 423.058 317.894 425.728 319.834C428.018 321.494 430.218 323.264 432.358 325.114C437.068 329.164 441.558 333.664 444.358 339.204C447.158 344.744 448.098 351.514 445.598 357.204C445.035 358.6 444.151 359.843 443.018 360.834C440.308 363.044 436.388 362.834 432.948 362.164C415.518 358.964 400.128 349.164 385.238 339.534C380.988 336.794 376.568 333.884 374.118 329.464C372.626 326.449 371.707 323.184 371.408 319.834C369.937 309.051 370.099 298.108 371.888 287.374C372.448 284.004 372.748 280.374 376.738 281.194C380.128 281.894 383.258 284.404 385.948 286.494Z" fill="#39B64B"/>
<path d="M322.498 278.594C321.461 284.519 319.215 290.167 315.9 295.185C312.584 300.204 308.271 304.486 303.228 307.764C299.998 309.764 297.868 312.624 295.498 315.124C293.668 317.223 291.34 318.829 288.728 319.794C273.518 324.844 253.488 337.604 238.278 342.654C217.278 349.654 209.938 351.214 187.848 352.544C185.202 352.726 182.545 352.407 180.018 351.604C177.158 350.604 174.928 348.794 174.718 345.844C174.358 340.354 181.308 337.844 186.718 336.784C233.898 327.284 258.098 286.314 301.978 266.554C316.648 259.924 325.538 261.394 322.498 278.594Z" fill="#39B64B"/>
<path opacity="0.58" d="M302.648 292.224L295.518 315.124C293.688 317.223 291.36 318.829 288.748 319.794C273.538 324.844 253.508 337.604 238.298 342.654C217.298 349.654 209.958 351.214 187.868 352.544C185.222 352.726 182.565 352.407 180.038 351.604C180.038 351.194 180.128 350.764 180.198 350.334C180.198 350.334 225.048 346.034 258.578 320.694C292.108 295.354 302.648 292.224 302.648 292.224Z" fill="url(#paint1_linear)"/>
<path d="M318.518 262.944C315.378 262.504 312.048 262.364 309.188 263.714C304.468 265.924 302.348 271.344 300.658 276.274L269.758 366.454C267.078 374.274 264.378 382.684 266.578 390.644C267.448 393.794 269.218 396.854 272.078 398.414C273.509 399.114 275.03 399.612 276.598 399.894C295.718 404.214 314.944 408.044 334.278 411.384C338.818 412.174 343.758 412.874 347.818 410.704C351.328 408.834 353.458 405.184 355.318 401.704C372.975 368.229 381.764 330.789 380.848 292.954C380.937 289.975 380.476 287.005 379.488 284.194C376.228 276.334 366.558 273.774 358.188 272.194C351.288 270.914 344.068 270.194 337.268 268.524C330.868 267.004 325.168 263.774 318.518 262.944Z" fill="#39B64B"/>
<path d="M156.368 335.584C151.708 335.474 146.738 335.734 142.888 338.364C139.038 340.994 137.008 346.794 139.888 350.484C142.378 353.714 147.088 353.924 151.158 353.844L166.498 353.574C170.288 353.504 174.208 353.404 177.638 351.774C180.218 350.544 182.718 348.064 183.218 345.144C183.828 341.634 180.618 340.734 177.768 339.514C171.028 336.664 163.648 335.754 156.368 335.584Z" fill="#FADEA5"/>
<path d="M388.328 226.034C387.138 231.734 384.618 237.034 382.108 242.324C378.721 249.464 375.334 256.6 371.948 263.734C369.588 268.734 367.238 273.654 364.438 278.374C362.422 281.85 360.078 285.125 357.438 288.154C355.018 290.854 352.148 293.344 348.658 294.374C346.633 294.958 344.493 295.019 342.438 294.55C340.384 294.08 338.482 293.097 336.912 291.691C335.341 290.286 334.154 288.505 333.46 286.515C332.767 284.524 332.59 282.391 332.948 280.314C333.718 275.974 336.778 272.084 336.548 267.684C336.53 266.887 336.343 266.103 335.998 265.384V265.384C335.288 264.294 334.387 263.342 333.338 262.574C331.302 260.733 329.727 258.441 328.739 255.881C327.751 253.321 327.377 250.565 327.648 247.834C328.074 244.901 328.948 242.052 330.238 239.384C332.558 234.094 335.368 229.034 338.058 223.914C339.918 220.334 343.598 215.294 343.348 211.124C343.198 208.624 340.868 206.304 342.008 203.784C343.708 200.014 350.598 199.224 354.068 198.504C358.986 197.381 364.066 197.144 369.068 197.804C376.148 198.884 383.068 202.724 386.538 209.004C389.318 214.114 389.538 220.324 388.328 226.034Z" fill="#FADEA5"/>
<path d="M352.648 193.714C347.988 193.594 343.158 193.554 338.848 195.344C336.848 196.174 334.848 197.574 334.368 199.664C334.085 201.166 334.351 202.721 335.118 204.044C336.932 207.254 339.854 209.693 343.338 210.904C346.8 212.081 350.414 212.754 354.068 212.904C354.045 214.025 354.295 215.136 354.797 216.139C355.298 217.143 356.037 218.009 356.948 218.664C358.782 219.956 360.916 220.758 363.148 220.994C365.928 221.384 369.248 221.564 370.708 223.994C371.267 225.084 371.538 226.299 371.498 227.524C371.687 233.791 370.229 239.997 367.268 245.524C369.898 245.804 372.218 242.524 374.688 243.434C376.388 244.094 376.688 246.584 375.688 248.074C375.098 248.771 374.37 249.337 373.548 249.735C372.726 250.133 371.83 250.354 370.918 250.384C370.22 250.387 369.534 250.558 368.918 250.884C368.444 251.273 368.076 251.775 367.848 252.344C365.815 256.498 364.381 260.918 363.588 265.474C363.28 266.615 363.351 267.825 363.788 268.924C364.788 270.814 367.538 270.974 369.478 270.074C372.268 268.764 374.048 266.074 375.648 263.394C381.408 253.844 392.088 250.534 393.338 239.454C393.948 234.004 391.268 223.064 390.798 217.614C390.078 209.084 383.438 203.904 376.598 199.294C369.558 194.504 360.868 193.924 352.648 193.714Z" fill="#3F3D56"/>
<path d="M385.348 234.154C383.488 234.254 381.928 235.524 380.518 236.754C378.631 238.414 376.771 240.114 374.938 241.854C372.924 243.614 371.191 245.671 369.798 247.954C368.62 250.097 368.02 252.509 368.058 254.954C368.028 255.549 368.163 256.14 368.448 256.664C368.814 257.106 369.323 257.407 369.887 257.514C370.45 257.622 371.034 257.53 371.538 257.254C372.532 256.671 373.372 255.858 373.988 254.884C372.191 257.743 371.578 261.19 372.278 264.494C373 267.758 374.419 270.828 376.438 273.494C377.816 275.6 379.584 277.423 381.648 278.864C382.033 279.158 382.503 279.319 382.988 279.324C383.381 279.266 383.753 279.108 384.068 278.864C388.21 276.14 391.442 272.24 393.348 267.664C393.658 267.025 393.815 266.324 393.808 265.614C393.723 265.024 393.548 264.45 393.288 263.914C391.869 260.432 391.38 256.642 391.868 252.914C392.358 249.144 394.348 244.794 392.778 241.074C391.548 238.184 388.938 233.944 385.348 234.154Z" fill="#FADEA5"/>
<path d="M455.208 357.824C449.368 363.034 433.078 367.884 421.158 353.984L420.738 353.484C406.248 336.364 398.108 314.664 387.818 294.664C384.898 289.004 381.968 282.784 383.108 276.504C383.915 272.907 385.93 269.696 388.818 267.404C391.182 265.328 394.176 264.109 397.318 263.944C402.858 263.834 407.378 270.384 410.738 274.134C415.328 279.294 419.508 284.774 423.638 290.304C431.728 301.134 439.638 312.304 449.708 321.374C454.758 325.914 460.618 330.314 462.588 336.824C464.848 344.364 461.038 352.604 455.208 357.824Z" fill="#39B64B"/>
<path opacity="0.58" d="M357.088 348.724C360.848 338.134 364.208 327.364 369.088 317.254C369.449 316.278 370.106 315.439 370.968 314.854C372.578 313.974 374.528 314.994 376.058 315.994C392.138 326.599 406.843 339.155 419.838 353.374C416.838 356.684 411.458 354.584 407.638 352.304L377.818 334.484C376.298 345.264 371.228 366.934 365.248 380.234C361.958 387.554 356.668 401.094 351.538 407.234C348.688 410.664 343.738 413.864 331.058 410.544C326.598 409.374 332.608 404.484 334.398 400.894C336.118 397.464 337.878 394.054 339.538 390.594C346.137 376.963 351.996 362.986 357.088 348.724Z" fill="url(#paint2_linear)"/>
<path opacity="0.58" d="M443.938 355.404L420.738 353.484C406.248 336.364 398.108 314.664 387.818 294.664C384.898 289.004 381.968 282.784 383.108 276.504C383.915 272.907 385.93 269.696 388.818 267.404C388.998 270.064 390.738 278.994 403.388 303.404C414.038 323.944 431.728 346.564 431.728 346.564L443.938 355.404Z" fill="url(#paint3_linear)"/>
<path d="M512.447 351.244H1.16748V362.944H512.447V351.244Z" fill="#39B64B"/>
<path opacity="0.58" d="M512.188 351.504H0.907715V357.094H512.188V351.504Z" fill="url(#paint4_linear)"/>
<path d="M341.828 285.394C341.158 285.938 340.376 286.327 339.538 286.534C338.742 286.794 337.894 286.857 337.069 286.717C336.243 286.577 335.464 286.239 334.798 285.731C334.132 285.224 333.599 284.562 333.245 283.803C332.892 283.044 332.728 282.21 332.768 281.374C332.768 281.024 332.848 280.664 332.908 280.314C333.678 275.974 336.738 272.084 336.508 267.684C336.49 266.887 336.303 266.103 335.958 265.384C340.634 267.822 345.992 268.624 351.178 267.664C359.378 265.894 343.978 283.254 341.828 285.394Z" fill="url(#paint5_linear)"/>
<path d="M362.578 391.964C362.428 400.734 359.358 409.264 356.058 417.444C353.908 422.774 351.528 428.274 347.168 432.034C340.168 438.094 330.028 438.244 320.788 438.094C307.788 437.874 294.788 437.534 281.968 436.694C268.148 435.774 254.338 439.874 240.528 439.874C229.858 440.044 217.118 438.064 210.728 449.394C206.728 456.454 208.588 472.204 206.128 482.334H206.038C195.151 480.787 184.338 478.787 173.598 476.334H173.528C171.618 467.194 171.528 455.334 171.098 448.884C170.511 439.764 170.108 430.63 169.888 421.484C169.768 416.894 169.748 412.124 171.638 407.934C176.048 398.244 188.388 395.674 198.968 394.504C223.968 391.674 250.498 386.014 275.618 385.924C304.618 385.834 333.678 387.604 362.548 389.444C362.648 390.264 362.648 391.124 362.578 391.964Z" fill="#3F3D56"/>
<path opacity="0.58" d="M362.578 391.964C362.428 400.734 359.358 409.264 356.058 417.444C353.908 422.774 351.528 428.274 347.168 432.034C340.168 438.094 330.028 438.244 320.788 438.094C307.788 437.874 294.788 437.534 281.968 436.694C268.148 435.774 254.338 439.874 240.528 439.874C229.858 440.044 217.118 438.064 210.728 449.394C206.728 456.554 208.628 472.334 206.038 482.314C195.151 480.767 184.338 478.767 173.598 476.314C171.478 467.504 171.528 455.594 171.098 448.854C170.511 439.734 170.108 430.6 169.888 421.454C169.768 416.864 169.748 412.094 171.638 407.904C176.048 398.214 188.388 395.644 198.968 394.474C223.968 391.644 250.498 385.984 275.618 385.894C304.618 385.804 333.678 387.574 362.548 389.414C362.648 390.264 362.648 391.124 362.578 391.964Z" fill="url(#paint6_linear)"/>
<path d="M347.938 430.474C341.488 435.804 333.248 438.474 325.088 440.414C310.066 444.007 294.636 445.6 279.198 445.154C275.748 445.054 271.708 445.154 269.668 447.914C268.877 449.183 268.375 450.61 268.198 452.094C266.521 461.306 265.954 470.686 266.508 480.034C266.508 480.334 266.648 482.654 266.788 485.604C256.658 486.199 246.5 486.139 236.378 485.424L233.518 485.224C232.808 472.484 231.968 457.114 231.518 449.424C231.058 441.234 230.618 432.894 232.518 424.904C234.418 416.914 238.858 409.154 246.088 405.264C249.798 403.264 253.998 402.384 258.088 401.534C273.308 398.394 278.318 394.184 293.628 391.484L320.148 386.604C329.028 388.764 360.778 383.004 362.548 391.964C364.218 400.194 354.408 425.144 347.938 430.474Z" fill="#3F3D56"/>
<path d="M300.838 440.164C295.318 440.244 289.838 439.814 284.298 439.634C280.868 439.514 277.298 439.514 274.138 440.744C270.978 441.974 268.138 444.694 267.678 448.104C267.188 452.214 270.398 456.054 274.218 457.654C278.038 459.254 282.328 459.164 286.468 459.034L306.328 458.394C320.218 457.954 334.478 457.394 347.278 452.024C356.448 448.164 364.418 441.974 372.028 435.564C375.618 432.564 379.208 429.394 381.798 425.464C384.388 421.534 385.878 416.684 384.878 412.084C384.198 408.924 381.828 405.744 378.588 405.634C372.338 405.434 368.848 414.494 365.668 418.554C361.608 423.734 353.748 426.094 347.848 428.654C333.008 435.094 317.128 439.954 300.838 440.164Z" fill="#39B64B"/>
<path d="M266.458 90.5938L265.538 91.0638C265.713 90.8279 265.9 90.6009 266.098 90.3838C266.218 90.4538 266.338 90.5138 266.458 90.5938Z" fill="white"/>
<path d="M266.458 90.5938L265.538 91.0638C265.713 90.8279 265.9 90.6009 266.098 90.3838C266.218 90.4538 266.338 90.5138 266.458 90.5938Z" fill="white"/>
<path opacity="0.68" d="M310.648 105.914C313.068 100.277 313.714 94.0361 312.5 88.0228C311.285 82.0095 308.267 76.509 303.848 72.2538C309.818 68.0772 314.582 62.4014 317.661 55.7979C320.74 49.1943 322.025 41.8962 321.386 34.6382C320.747 27.3802 318.208 20.4186 314.023 14.4543C309.838 8.48996 304.155 3.7335 297.548 0.663788C272.71 1.68284 247.978 4.50022 223.548 9.09379C192.658 15.0938 162.018 24.5838 135.488 41.4938C108.958 58.4038 86.7076 83.3238 77.1476 113.304C69.9276 136.004 70.1476 160.674 66.1476 184.054C65.1206 190.381 63.6673 196.632 61.7976 202.764C65.0615 209.62 69.885 215.617 75.8821 220.275C81.8792 224.933 88.8834 228.122 96.3342 229.588C103.785 231.054 111.475 230.755 118.79 228.716C126.104 226.676 132.84 222.953 138.458 217.844C140.061 228.022 144.853 237.428 152.145 244.708C159.436 251.987 168.85 256.765 179.031 258.352C189.211 259.939 199.633 258.253 208.794 253.538C217.955 248.822 225.383 241.321 230.008 232.114C238.502 240.096 249.582 244.763 261.228 245.263C272.874 245.764 284.313 242.065 293.461 234.841C302.609 227.616 308.859 217.347 311.072 205.902C313.285 194.457 311.314 182.598 305.518 172.484C311.365 170.953 316.723 167.95 321.08 163.761C325.437 159.572 328.648 154.336 330.408 148.554C330.926 146.86 331.31 145.128 331.558 143.374C332.681 135.699 331.24 127.868 327.46 121.095C323.679 114.322 317.77 108.986 310.648 105.914ZM259.908 74.5538C260.038 74.6238 260.178 74.6938 260.298 74.7738L259.298 75.2938C259.484 75.0333 259.687 74.7861 259.908 74.5538Z" fill="white"/>
<path opacity="0.68" d="M282.067 47.2238C282.247 46.9738 282.447 46.7238 282.657 46.4838C282.795 46.549 282.929 46.6225 283.057 46.7038L282.067 47.2238ZM354.697 110.224C354.697 103.335 352.681 96.5967 348.898 90.8395C345.115 85.0823 339.731 80.5579 333.407 77.8238C335.829 72.195 336.48 65.9621 335.272 59.9546C334.064 53.947 331.056 48.4496 326.647 44.1938C332.111 40.3668 336.569 35.2772 339.644 29.3578C342.718 23.4384 344.318 16.8641 344.307 10.1938C344.306 7.05439 343.954 3.92498 343.257 0.863788C333.946 0.0792234 324.597 -0.171187 315.257 0.113788C309.371 0.220455 303.484 0.407122 297.597 0.673789C272.76 1.69285 248.028 4.51022 223.597 9.10379C192.707 15.1038 162.067 24.5938 135.537 41.5038C109.007 58.4138 86.7075 83.3238 77.1475 113.304C69.9275 136.004 70.1475 160.674 66.1475 184.054C86.6575 194.304 115.707 202.434 128.497 202.434C140.603 202.452 152.277 197.936 161.217 189.774C162.815 199.956 167.604 209.368 174.896 216.652C182.187 223.936 191.603 228.717 201.787 230.304C211.971 231.891 222.395 230.204 231.558 225.484C240.72 220.764 248.147 213.257 252.767 204.044C260.976 211.736 271.596 216.346 282.821 217.09C294.046 217.835 305.182 214.667 314.334 208.125C323.486 201.584 330.09 192.074 333.02 181.213C335.951 170.352 335.027 158.811 330.407 148.554C329.768 147.139 329.057 145.757 328.277 144.414C329.387 144.136 330.482 143.802 331.557 143.414C338.35 140.924 344.213 136.407 348.352 130.474C352.491 124.54 354.707 117.478 354.697 110.244V110.224Z" fill="white"/>
<path d="M218.508 179.064C239.771 179.064 257.008 168.99 257.008 156.564C257.008 144.137 239.771 134.064 218.508 134.064C197.245 134.064 180.008 144.137 180.008 156.564C180.008 168.99 197.245 179.064 218.508 179.064Z" fill="#FF912E"/>
<path d="M181.008 157.064V150.064L185.008 155.664L181.008 157.064Z" fill="#E0944F"/>
<path d="M257.008 150.064V157.064H252.008L255.672 151.445L257.008 150.064Z" fill="#E0944F"/>
<path d="M219.008 173.064C239.994 173.064 257.008 162.99 257.008 150.564C257.008 138.137 239.994 128.064 219.008 128.064C198.021 128.064 181.008 138.137 181.008 150.564C181.008 162.99 198.021 173.064 219.008 173.064Z" fill="#FFB92C"/>
<path d="M237.917 147.265C238.19 147.784 238.293 148.37 238.213 148.946L238.057 149.518H231.088C231.148 149.331 231.189 149.14 231.21 148.946C231.185 148.509 231.04 148.086 230.792 147.719C230.388 147.057 229.779 146.534 229.05 146.223C228.036 145.715 226.917 145.434 225.775 145.4C224.719 145.322 223.659 145.477 222.675 145.854C221.699 146.257 221.322 146.784 221.542 147.434C221.869 148.231 222.375 148.948 223.023 149.534C223.774 150.271 224.478 151.051 225.131 151.871C225.441 152.223 225.642 152.653 225.709 153.111C225.777 153.569 225.709 154.036 225.514 154.459C224.75 155.677 223.547 156.581 222.134 156.997C219.797 157.934 217.297 158.436 214.766 158.476C212.032 158.565 209.303 158.196 206.7 157.383L202.694 159.064L198.008 156.862L201.892 155.181C201.189 154.713 200.561 154.146 200.028 153.501C199.628 153.061 199.315 152.554 199.105 152.005C198.972 151.613 198.89 151.207 198.861 150.795C198.814 150.517 198.814 150.233 198.861 149.955L199.001 149.635H205.969C205.896 149.855 205.837 150.08 205.794 150.307C205.823 150.859 206.017 151.39 206.352 151.837C206.907 152.675 207.707 153.336 208.651 153.736C209.909 154.346 211.287 154.689 212.693 154.744C213.964 154.829 215.239 154.633 216.421 154.173C217.385 153.77 217.745 153.243 217.501 152.593C217.159 151.791 216.635 151.073 215.968 150.492C215.202 149.764 214.492 148.983 213.842 148.156C213.537 147.796 213.347 147.358 213.294 146.896C213.241 146.434 213.329 145.966 213.546 145.551C214.361 144.324 215.593 143.409 217.03 142.963C219.279 142.087 221.678 141.631 224.103 141.618C226.668 141.533 229.227 141.915 231.646 142.744L235.635 141.064L240.008 143.366L236.001 145.047C236.833 145.608 237.495 146.374 237.917 147.265V147.265Z" fill="#EA8B24"/>
<path d="M219.008 169.064C236.681 169.064 251.008 160.781 251.008 150.564C251.008 140.347 236.681 132.064 219.008 132.064C201.334 132.064 187.008 140.347 187.008 150.564C187.008 160.781 201.334 169.064 219.008 169.064Z" stroke="#F7931E" stroke-width="6" stroke-miterlimit="10"/>
<path d="M219.008 163.064C239.994 163.064 257.008 152.99 257.008 140.564C257.008 128.137 239.994 118.064 219.008 118.064C198.021 118.064 181.008 128.137 181.008 140.564C181.008 152.99 198.021 163.064 219.008 163.064Z" fill="#FF912E"/>
<path d="M181.008 141.064V134.064L185.008 139.649L181.008 141.064Z" fill="#E0944F"/>
<path d="M257.008 134.064V141.064H252.008L255.672 135.441L257.008 134.064Z" fill="#E0944F"/>
<path d="M219.008 156.064C239.994 156.064 257.008 146.214 257.008 134.064C257.008 121.914 239.994 112.064 219.008 112.064C198.021 112.064 181.008 121.914 181.008 134.064C181.008 146.214 198.021 156.064 219.008 156.064Z" fill="#FFB92C"/>
<path d="M237.917 131.265C238.19 131.784 238.293 132.37 238.213 132.946L238.057 133.518H231.088C231.148 133.331 231.189 133.14 231.21 132.946C231.185 132.509 231.04 132.086 230.792 131.719C230.388 131.057 229.779 130.534 229.05 130.223C228.036 129.715 226.917 129.434 225.775 129.4C224.719 129.322 223.659 129.477 222.675 129.854C221.699 130.257 221.322 130.784 221.542 131.434C221.869 132.231 222.375 132.948 223.023 133.534C223.774 134.271 224.478 135.051 225.131 135.871C225.441 136.223 225.642 136.653 225.709 137.111C225.777 137.569 225.709 138.036 225.514 138.459C224.75 139.677 223.547 140.581 222.134 140.997C219.797 141.934 217.297 142.436 214.766 142.476C212.032 142.565 209.303 142.196 206.7 141.383L202.694 143.064L198.008 140.862L201.892 139.181C201.189 138.713 200.561 138.146 200.028 137.501C199.628 137.061 199.315 136.554 199.105 136.005C198.972 135.613 198.89 135.206 198.861 134.795C198.814 134.517 198.814 134.233 198.861 133.955L199.001 133.635H205.969C205.896 133.855 205.837 134.08 205.794 134.307C205.823 134.859 206.017 135.39 206.352 135.837C206.907 136.675 207.707 137.336 208.651 137.736C209.909 138.346 211.287 138.689 212.693 138.744C213.964 138.829 215.239 138.633 216.421 138.173C217.385 137.77 217.745 137.243 217.501 136.593C217.159 135.791 216.635 135.073 215.968 134.492C215.202 133.764 214.492 132.983 213.842 132.156C213.537 131.796 213.347 131.358 213.294 130.896C213.241 130.434 213.329 129.966 213.546 129.551C214.361 128.324 215.593 127.409 217.03 126.963C219.279 126.087 221.678 125.631 224.103 125.618C226.668 125.533 229.227 125.915 231.646 126.744L235.635 125.064L240.008 127.366L236.001 129.047C236.833 129.608 237.495 130.374 237.917 131.265V131.265Z" fill="#EA8B24"/>
<path d="M219.008 153.064C236.681 153.064 251.008 144.781 251.008 134.564C251.008 124.347 236.681 116.064 219.008 116.064C201.334 116.064 187.008 124.347 187.008 134.564C187.008 144.781 201.334 153.064 219.008 153.064Z" stroke="#F7931E" stroke-width="2" stroke-miterlimit="10"/>
<path d="M219.008 153.064C239.994 153.064 257.008 143.214 257.008 131.064C257.008 118.914 239.994 109.064 219.008 109.064C198.021 109.064 181.008 118.914 181.008 131.064C181.008 143.214 198.021 153.064 219.008 153.064Z" fill="#FF912E"/>
<path d="M181.008 131.064V125.064L185.008 129.851L181.008 131.064Z" fill="#E0944F"/>
<path d="M257.008 125.064V131.064H252.008L255.672 126.244L257.008 125.064Z" fill="#E0944F"/>
<path d="M219.008 147.064C239.994 147.064 257.008 136.99 257.008 124.564C257.008 112.137 239.994 102.064 219.008 102.064C198.021 102.064 181.008 112.137 181.008 124.564C181.008 136.99 198.021 147.064 219.008 147.064Z" fill="#FFB92C"/>
<path d="M237.917 121.61C238.19 122.157 238.293 122.776 238.213 123.384L238.057 123.987H231.088C231.148 123.791 231.189 123.589 231.21 123.384C231.185 122.923 231.04 122.476 230.792 122.089C230.388 121.39 229.779 120.838 229.05 120.51C228.037 119.974 226.917 119.677 225.775 119.641C224.719 119.558 223.659 119.722 222.675 120.12C221.699 120.546 221.322 121.101 221.542 121.787C221.869 122.629 222.375 123.386 223.023 124.005C223.774 124.783 224.478 125.606 225.131 126.471C225.441 126.843 225.642 127.297 225.709 127.781C225.777 128.264 225.709 128.757 225.514 129.203C224.75 130.489 223.547 131.443 222.134 131.882C219.797 132.872 217.297 133.401 214.766 133.443C212.032 133.538 209.303 133.147 206.7 132.29L202.694 134.064L198.008 131.74L201.892 129.966C201.189 129.471 200.561 128.873 200.028 128.192C199.628 127.727 199.315 127.192 199.105 126.613C198.972 126.199 198.89 125.77 198.861 125.335C198.814 125.042 198.814 124.742 198.861 124.448L199.001 124.111H205.969C205.896 124.344 205.837 124.581 205.794 124.821C205.823 125.403 206.017 125.963 206.352 126.435C206.907 127.32 207.707 128.017 208.651 128.44C209.909 129.084 211.287 129.446 212.693 129.504C213.964 129.594 215.239 129.387 216.421 128.901C217.385 128.476 217.745 127.92 217.501 127.234C217.159 126.387 216.635 125.629 215.968 125.016C215.202 124.247 214.492 123.423 213.842 122.55C213.537 122.17 213.347 121.708 213.294 121.22C213.241 120.732 213.329 120.239 213.546 119.8C214.361 118.505 215.593 117.539 217.03 117.068C219.279 116.144 221.679 115.662 224.103 115.649C226.668 115.559 229.227 115.963 231.646 116.838L235.635 115.064L240.008 117.494L236.001 119.268C236.833 119.861 237.495 120.669 237.917 121.61V121.61Z" fill="#EA8B24"/>
<path d="M219.008 144.064C236.681 144.064 251.008 135.557 251.008 125.064C251.008 114.57 236.681 106.064 219.008 106.064C201.334 106.064 187.008 114.57 187.008 125.064C187.008 135.557 201.334 144.064 219.008 144.064Z" stroke="#F7931E" stroke-width="6" stroke-miterlimit="10"/>
<path d="M219.008 136.064C239.994 136.064 257.008 125.99 257.008 113.564C257.008 101.137 239.994 91.0638 219.008 91.0638C198.021 91.0638 181.008 101.137 181.008 113.564C181.008 125.99 198.021 136.064 219.008 136.064Z" fill="#FF912E"/>
<path d="M181.008 114.064V107.064L185.008 112.664L181.008 114.064Z" fill="#E0944F"/>
<path d="M257.008 107.064V114.064H252.008L255.672 108.445L257.008 107.064Z" fill="#E0944F"/>
<path d="M219.008 129.064C239.994 129.064 257.008 119.214 257.008 107.064C257.008 94.9135 239.994 85.0638 219.008 85.0638C198.021 85.0638 181.008 94.9135 181.008 107.064C181.008 119.214 198.021 129.064 219.008 129.064Z" fill="#FFB92C"/>
<path d="M237.917 104.265C238.19 104.784 238.293 105.37 238.213 105.946L238.057 106.518H231.088C231.148 106.331 231.189 106.14 231.21 105.946C231.185 105.509 231.04 105.086 230.792 104.719C230.388 104.057 229.779 103.534 229.05 103.223C228.037 102.715 226.917 102.434 225.775 102.4C224.719 102.322 223.659 102.477 222.675 102.854C221.699 103.257 221.322 103.784 221.542 104.434C221.869 105.231 222.375 105.948 223.023 106.534C223.774 107.271 224.478 108.051 225.131 108.871C225.441 109.223 225.642 109.653 225.709 110.111C225.777 110.569 225.709 111.036 225.514 111.459C224.75 112.677 223.547 113.581 222.134 113.997C219.797 114.934 217.297 115.436 214.766 115.476C212.032 115.565 209.303 115.196 206.7 114.383L202.694 116.064L198.008 113.862L201.892 112.181C201.189 111.713 200.561 111.146 200.028 110.501C199.628 110.061 199.315 109.554 199.105 109.005C198.972 108.613 198.89 108.206 198.861 107.795C198.814 107.517 198.814 107.233 198.861 106.955L199.001 106.635H205.969C205.896 106.855 205.837 107.08 205.794 107.307C205.823 107.859 206.017 108.39 206.352 108.837C206.907 109.675 207.707 110.336 208.651 110.736C209.909 111.346 211.287 111.689 212.693 111.744C213.964 111.829 215.239 111.633 216.421 111.173C217.385 110.77 217.745 110.243 217.501 109.593C217.159 108.791 216.635 108.073 215.968 107.492C215.202 106.764 214.492 105.983 213.842 105.156C213.537 104.796 213.347 104.358 213.294 103.896C213.241 103.434 213.329 102.966 213.546 102.551C214.361 101.324 215.593 100.409 217.03 99.9629C219.279 99.0871 221.679 98.6309 224.103 98.6184C226.668 98.5333 229.227 98.9154 231.646 99.7445L235.635 98.0638L240.008 100.366L236.001 102.047C236.833 102.608 237.495 103.374 237.917 104.265V104.265Z" fill="#EA8B24"/>
<path d="M219.008 126.064C236.681 126.064 251.008 117.781 251.008 107.564C251.008 97.3465 236.681 89.0638 219.008 89.0638C201.334 89.0638 187.008 97.3465 187.008 107.564C187.008 117.781 201.334 126.064 219.008 126.064Z" stroke="#F7931E" stroke-width="2" stroke-miterlimit="10"/>
<path d="M204.008 117.064C224.994 117.064 242.008 106.99 242.008 94.5638C242.008 82.1374 224.994 72.0638 204.008 72.0638C183.021 72.0638 166.008 82.1374 166.008 94.5638C166.008 106.99 183.021 117.064 204.008 117.064Z" fill="#FF912E"/>
<path d="M166.008 94.0638V88.0638L170.008 92.8638L166.008 94.0638Z" fill="#E0944F"/>
<path d="M242.008 88.0638V94.0638H237.008L240.677 89.2476L242.008 88.0638Z" fill="#E0944F"/>
<path d="M204.008 110.064C224.994 110.064 242.008 100.214 242.008 88.0638C242.008 75.9135 224.994 66.0638 204.008 66.0638C183.021 66.0638 166.008 75.9135 166.008 88.0638C166.008 100.214 183.021 110.064 204.008 110.064Z" fill="#FFB92C"/>
<path d="M222.917 85.2654C223.19 85.7839 223.293 86.3699 223.213 86.9461L223.057 87.5176H216.088C216.148 87.3313 216.189 87.1399 216.21 86.9461C216.185 86.5089 216.04 86.0859 215.792 85.7192C215.388 85.0574 214.779 84.5344 214.05 84.2234C213.037 83.7153 211.917 83.4339 210.775 83.3999C209.719 83.3219 208.659 83.4771 207.675 83.8537C206.699 84.257 206.322 84.7837 206.542 85.4335C206.869 86.2305 207.375 86.9479 208.023 87.5344C208.774 88.2713 209.478 89.0514 210.131 89.8705C210.441 90.2232 210.642 90.6533 210.709 91.1113C210.777 91.5692 210.71 92.0364 210.514 92.4588C209.75 93.6774 208.547 94.5811 207.134 94.9966C204.797 95.9343 202.297 96.4361 199.766 96.4756C197.032 96.5654 194.303 96.1957 191.7 95.3831L187.694 97.0638L183.008 94.8621L186.892 93.1814C186.189 92.7125 185.561 92.1462 185.028 91.5008C184.628 91.061 184.315 90.5539 184.105 90.005C183.972 89.613 183.89 89.2065 183.861 88.7949C183.814 88.5166 183.814 88.2328 183.861 87.9545L184.001 87.6352H190.969C190.896 87.8554 190.837 88.08 190.794 88.3075C190.823 88.8585 191.017 89.3897 191.352 89.8369C191.907 90.6749 192.707 91.3357 193.651 91.736C194.909 92.3456 196.287 92.6894 197.693 92.7445C198.964 92.8288 200.239 92.6334 201.421 92.173C202.385 91.7697 202.745 91.2431 202.501 90.5932C202.159 89.7911 201.635 89.0732 200.968 88.4924C200.202 87.7642 199.492 86.9834 198.843 86.1562C198.537 85.7962 198.347 85.3585 198.294 84.8961C198.241 84.4336 198.329 83.9665 198.546 83.5512C199.361 82.324 200.593 81.4088 202.03 80.9629C204.279 80.0871 206.679 79.6309 209.103 79.6184C211.668 79.5334 214.227 79.9154 216.646 80.7445L220.635 79.0638L225.008 81.3663L221.001 83.047C221.833 83.6084 222.495 84.3744 222.917 85.2654V85.2654Z" fill="#EA8B24"/>
<path d="M204.008 107.064C221.681 107.064 236.008 98.5572 236.008 88.0638C236.008 77.5704 221.681 69.0638 204.008 69.0638C186.334 69.0638 172.008 77.5704 172.008 88.0638C172.008 98.5572 186.334 107.064 204.008 107.064Z" stroke="#F7931E" stroke-width="2" stroke-miterlimit="10"/>
<path d="M266.458 90.5938L265.538 91.0638C265.713 90.8279 265.9 90.6009 266.098 90.3838C266.218 90.4538 266.338 90.5138 266.458 90.5938Z" fill="white"/>
<path d="M115.568 252.194H88.2476V350.994H115.568V252.194Z" fill="#39B64B"/>
<path d="M55.2477 287.554H27.9277V350.994H55.2477V287.554Z" fill="#39B64B"/>
<path d="M85.6877 252.194H58.3677V350.994H85.6877V252.194Z" fill="#39B64B"/>
<path opacity="0.58" d="M115.568 252.194H88.2476V350.994H115.568V252.194Z" fill="url(#paint7_linear)"/>
<path opacity="0.58" d="M55.2477 287.554H27.9277V350.994H55.2477V287.554Z" fill="url(#paint8_linear)"/>
<path opacity="0.58" d="M85.6877 252.194H58.3677V350.994H85.6877V252.194Z" fill="url(#paint9_linear)"/>
<path opacity="0.58" d="M115.488 292.354H88.1975V320.674H115.488V292.354Z" fill="url(#paint10_linear)"/>
<path opacity="0.58" d="M85.6375 292.354H58.4575V320.674H85.6375V292.354Z" fill="url(#paint11_linear)"/>
<path opacity="0.58" d="M55.0775 292.474H27.8975V320.794H55.0775V292.474Z" fill="url(#paint12_linear)"/>
<path d="M127.998 333.314H15.7175V351.524H127.998V333.314Z" fill="#39B64B"/>
<path opacity="0.68" d="M319.168 219.014C322.52 219.014 325.238 216.296 325.238 212.944C325.238 209.591 322.52 206.874 319.168 206.874C315.815 206.874 313.098 209.591 313.098 212.944C313.098 216.296 315.815 219.014 319.168 219.014Z" fill="white"/>
<path opacity="0.68" d="M328.938 224.204C330.87 224.204 332.438 222.637 332.438 220.704C332.438 218.771 330.87 217.204 328.938 217.204C327.005 217.204 325.438 218.771 325.438 220.704C325.438 222.637 327.005 224.204 328.938 224.204Z" fill="white"/>
<path opacity="0.68" d="M272.038 100.464C271.363 100.676 270.723 100.986 270.138 101.384C269.453 101.99 268.866 102.698 268.398 103.484C267.066 105.407 265.508 107.162 263.758 108.714C262.912 109.367 262.165 110.138 261.538 111.004C261.229 111.434 261.039 111.938 260.989 112.465C260.938 112.992 261.027 113.523 261.248 114.004C263.973 113.861 266.624 113.067 268.98 111.689C271.336 110.311 273.327 108.389 274.788 106.084C275.386 104.925 276.111 103.835 276.948 102.834C277.387 102.443 277.795 102.018 278.168 101.564C278.349 101.332 278.466 101.056 278.506 100.765C278.546 100.473 278.509 100.176 278.398 99.9038C277.418 98.0838 273.298 100.004 272.038 100.464Z" fill="white"/>
<defs>
<linearGradient id="paint0_linear" x1="374.398" y1="374.904" x2="291.718" y2="452.124" gradientUnits="userSpaceOnUse">
<stop offset="0.01"/>
<stop offset="0.13" stop-opacity="0.69"/>
<stop offset="1" stop-opacity="0"/>
</linearGradient>
<linearGradient id="paint1_linear" x1="32648.4" y1="22504.1" x2="31521.8" y2="18357" gradientUnits="userSpaceOnUse">
<stop offset="0.01"/>
<stop offset="0.13" stop-opacity="0.69"/>
<stop offset="1" stop-opacity="0"/>
</linearGradient>
<linearGradient id="paint2_linear" x1="38774.8" y1="46877.7" x2="27398.7" y2="27433" gradientUnits="userSpaceOnUse">
<stop offset="0.01"/>
<stop offset="0.13" stop-opacity="0.69"/>
<stop offset="1" stop-opacity="0"/>
</linearGradient>
<linearGradient id="paint3_linear" x1="23881.1" y1="30212" x2="27724.1" y2="28915" gradientUnits="userSpaceOnUse">
<stop offset="0.01"/>
<stop offset="0.13" stop-opacity="0.69"/>
<stop offset="1" stop-opacity="0"/>
</linearGradient>
<linearGradient id="paint4_linear" x1="132085" y1="2194.97" x2="132085" y2="2613.51" gradientUnits="userSpaceOnUse">
<stop offset="0.01"/>
<stop offset="0.13" stop-opacity="0.69"/>
<stop offset="1" stop-opacity="0"/>
</linearGradient>
<linearGradient id="paint5_linear" x1="6755.34" y1="5887.81" x2="8217.76" y2="6801.39" gradientUnits="userSpaceOnUse">
<stop offset="0.01"/>
<stop offset="0.13" stop-opacity="0.69"/>
<stop offset="1" stop-opacity="0"/>
</linearGradient>
<linearGradient id="paint6_linear" x1="53983.8" y1="43566.2" x2="33682.1" y2="21601.9" gradientUnits="userSpaceOnUse">
<stop offset="0.01"/>
<stop offset="0.13" stop-opacity="0.69"/>
<stop offset="1" stop-opacity="0"/>
</linearGradient>
<linearGradient id="paint7_linear" x1="2127.69" y1="30080.9" x2="5043.55" y2="30069.4" gradientUnits="userSpaceOnUse">
<stop offset="0.01"/>
<stop offset="0.13" stop-opacity="0.69"/>
<stop offset="1" stop-opacity="0"/>
</linearGradient>
<linearGradient id="paint8_linear" x1="148.136" y1="20478.6" x2="4175.54" y2="20522.3" gradientUnits="userSpaceOnUse">
<stop offset="0.01"/>
<stop offset="0.13" stop-opacity="0.69"/>
<stop offset="1" stop-opacity="0"/>
</linearGradient>
<linearGradient id="paint9_linear" x1="1323.83" y1="30036.4" x2="5063.69" y2="30039" gradientUnits="userSpaceOnUse">
<stop offset="0.01"/>
<stop offset="0.13" stop-opacity="0.69"/>
<stop offset="1" stop-opacity="0"/>
</linearGradient>
<linearGradient id="paint10_linear" x1="2863.04" y1="8204.67" x2="2877.74" y2="10632.3" gradientUnits="userSpaceOnUse">
<stop offset="0.01"/>
<stop offset="0.13" stop-opacity="0.69"/>
<stop offset="1" stop-opacity="0"/>
</linearGradient>
<linearGradient id="paint11_linear" x1="2012.16" y1="8204.96" x2="2027.2" y2="10632" gradientUnits="userSpaceOnUse">
<stop offset="0.01"/>
<stop offset="0.13" stop-opacity="0.69"/>
<stop offset="1" stop-opacity="0"/>
</linearGradient>
<linearGradient id="paint12_linear" x1="1150.97" y1="8208.48" x2="1166.02" y2="10635.8" gradientUnits="userSpaceOnUse">
<stop offset="0.01"/>
<stop offset="0.13" stop-opacity="0.69"/>
<stop offset="1" stop-opacity="0"/>
</linearGradient>
</defs>
</svg>
