<svg width="70" height="76" viewBox="0 0 70 76" fill="none" xmlns="http://www.w3.org/2000/svg">
<path d="M39.121 41.3809C39.001 40.3029 38.881 39.3449 38.762 38.2669C38.762 37.7879 38.642 37.3089 38.642 36.8299C38.6607 36.6225 38.619 36.4141 38.522 36.2299C38.282 34.4299 37.922 32.7569 37.564 30.9599L37.201 29.5239V29.6439C36.3942 32.1135 35.7541 34.6345 35.285 37.1899C34.085 42.9389 33.369 48.8079 32.171 54.5569C31.6397 57.5252 30.8808 60.4481 29.901 63.2999C28.943 65.8149 27.625 68.2109 24.871 69.1689C19.481 70.7259 17.086 64.3779 15.888 60.6689C14.451 56.2369 13.488 51.6859 12.415 47.1349C12.1454 46.2739 11.9447 45.3928 11.815 44.4999C10.495 50.4839 9.90098 56.5929 7.50098 62.3419L27.862 74.1989C30.2531 75.4562 32.9562 75.9969 35.647 75.7559C35.767 75.6359 35.767 75.3969 35.887 75.2769C36.007 75.1569 46.752 70.8029 46.871 70.5629C47.111 69.8439 36.725 73.2409 36.965 72.5219C37.5699 70.68 38.0496 68.7994 38.401 66.8929C38.619 65.8647 38.7789 64.8251 38.88 63.7789C38.861 63.533 38.9022 63.2863 39 63.0599C39.0995 62.5068 39.1397 61.9446 39.12 61.3829C39.36 59.2269 39.479 56.9509 39.599 54.6759C39.601 50.3639 39.48 45.8129 39.121 41.3809Z" fill="#40822D"/>
<path d="M20.9149 44.7349C21.6339 47.8489 22.3519 51.0829 23.1909 54.1969C23.7909 51.6819 24.1489 49.2859 24.6279 46.7709C24.8679 45.0939 25.2279 43.4169 25.4659 41.7409L16.9629 32.7579C18.9989 36.3509 19.9569 40.7829 20.9149 44.7349Z" fill="#40822D"/>
<path d="M48.4771 12.8379L31.4771 13.1269L32.4461 70.1269L49.4461 69.8379L48.4771 12.8379Z" fill="#40822D"/>
<path d="M35.5 72.9999C41.8513 72.9999 47 70.3136 47 66.9999C47 63.6862 41.8513 60.9999 35.5 60.9999C29.1487 60.9999 24 63.6862 24 66.9999C24 70.3136 29.1487 72.9999 35.5 72.9999Z" fill="#40822D"/>
<path d="M48.224 55.1549C48.0984 60.5475 47.496 65.9184 46.424 71.2049L62.474 61.8629C64.4335 60.5685 66.0616 58.832 67.2271 56.7931C68.3926 54.7543 69.0629 52.4702 69.184 50.1249V48.8069L42.834 20.5409C44.511 22.8169 45.349 25.9309 46.068 28.6859C47.9188 37.3799 48.6434 46.2759 48.224 55.1549Z" fill="#40822D"/>
<path d="M62.4769 13.9499L41.2769 1.6169C39.1796 0.553927 36.8613 0 34.5099 0C32.1586 0 29.8403 0.553927 27.7429 1.6169L6.90194 13.9499C3.18994 16.1089 0.314941 21.3789 0.314941 25.6909V50.2449C0.314941 51.5619 7.17694 61.0209 7.65694 62.4579C8.49494 58.7499 2.35094 47.0109 3.06994 43.4179C3.54814 40.6047 4.26951 37.8384 5.22594 35.1499C6.18394 32.7499 7.50194 29.9999 10.2559 29.4009C13.1309 28.8009 15.5259 30.2389 16.9629 32.7549L25.4629 41.7379C26.1219 37.2862 27.0824 32.8844 28.3379 28.5629C29.2959 25.4489 30.4939 21.1369 33.1289 18.9809C36.6019 16.2259 40.3149 17.0649 42.9499 20.4179L69.1799 48.8039V25.6909C69.0639 21.3789 66.1899 16.1089 62.4769 13.9499Z" fill="#40822D"/>
<path d="M27 69.9999C41.9117 69.9999 54 57.9116 54 42.9999C54 28.0882 41.9117 15.9999 27 15.9999C12.0883 15.9999 0 28.0882 0 42.9999C0 57.9116 12.0883 69.9999 27 69.9999Z" fill="#40822D"/>
<path d="M34.963 54.7839C31.6963 54.7839 28.8053 54.0979 26.29 52.7259C23.7747 51.3539 21.8147 49.3776 20.41 46.7969C19.0053 44.2162 18.303 41.1456 18.303 37.5849C18.303 35.2656 18.646 33.0116 19.332 30.8229C20.0507 28.6016 21.1123 26.5926 22.517 24.7959C23.9543 22.9992 25.7347 21.5782 27.858 20.5329C30.014 19.4549 32.513 18.9159 35.355 18.9159C37.119 18.9159 38.8993 19.1609 40.696 19.6509C42.5253 20.1082 44.126 20.7616 45.498 21.6109L45.302 19.2589H47.997V30.4799H46.233C46.1023 28.4219 45.547 26.6906 44.567 25.2859C43.6197 23.8486 42.3783 22.7542 40.843 22.0029C39.3077 21.2516 37.5927 20.8759 35.698 20.8759C33.3787 20.8759 31.2553 21.5456 29.328 22.8849C27.4333 24.1916 25.9143 26.0209 24.771 28.3729C23.6603 30.7249 23.105 33.4199 23.105 36.4579C23.105 39.5286 23.6603 42.2726 24.771 44.6899C25.8817 47.1072 27.417 49.0019 29.377 50.3739C31.3697 51.7459 33.6563 52.4319 36.237 52.4319C37.5437 52.4319 38.9483 52.2359 40.451 51.8439C41.9537 51.4519 43.342 50.8312 44.616 49.9819V39.2509C44.0607 39.2836 43.489 39.3162 42.901 39.3489C42.313 39.3816 41.7413 39.4142 41.186 39.4469V37.2909H52.26V38.9079C51.3453 38.9079 50.643 39.1529 50.153 39.6429C49.663 40.1002 49.32 40.6719 49.124 41.3579C48.928 42.0112 48.8137 42.6646 48.781 43.3179C48.7483 43.9386 48.732 44.4122 48.732 44.7389V52.2359H47.409C46.8863 52.2359 46.1677 52.3339 45.253 52.5299C44.3383 52.7259 43.293 53.0526 42.117 53.5099C41.1043 53.9019 39.9283 54.2122 38.589 54.4409C37.2497 54.6696 36.041 54.7839 34.963 54.7839Z" fill="white"/>
</svg>
