<svg width="312" height="281" viewBox="0 0 312 281" fill="none" xmlns="http://www.w3.org/2000/svg">
<path d="M160.24 278.18L305.1 192.56C309.71 189.97 313.67 185.72 309.17 182.93L163.79 99.15C161.61 97.8 158.3 96.91 156.08 98.2L4 186.45C-0.610003 189.13 -1.44 196.61 3.18 199.29L141.18 278.04C144.072 279.715 147.35 280.609 150.691 280.633C154.033 280.658 157.324 279.812 160.24 278.18Z" fill="#225870"/>
<path d="M197.12 110.59C196.654 110.962 196.143 111.274 195.6 111.52C195.611 111.556 195.613 111.593 195.607 111.63C195.601 111.667 195.587 111.702 195.566 111.732C195.545 111.763 195.517 111.789 195.485 111.807C195.453 111.826 195.417 111.837 195.38 111.84C195.11 111.84 194.84 111.84 194.57 111.84C193.714 112.047 192.823 112.065 191.96 111.892C191.096 111.72 190.28 111.361 189.57 110.84C188.375 110.32 187.252 109.648 186.23 108.84C183.75 106.84 181.23 103.96 178.41 101.91C178.41 102.48 178.49 103.06 178.55 103.6L179.16 109.1L180.24 118.85C180.24 119.02 180.24 119.54 180.33 119.68C185.03 125.76 197.97 123.61 197.97 123.61C197.97 123.61 205.62 103.86 197.12 110.59Z" fill="#F47A63"/>
<path d="M209.18 172.29C209.18 172.29 207.82 179.85 210.03 180.74C212.24 181.63 221.22 188.64 219.88 191.45C216.8 197.9 198.4 183.87 198.4 183.87L200.68 167.87" fill="#EF9841"/>
<path d="M197.57 143.37C197.57 144.82 196.28 169.99 196.28 169.99C196.28 169.99 206.5 179.42 214.13 178.83L217.9 154.41" fill="#FFF7E1"/>
<path d="M179.58 163.77C179.58 163.77 193.16 165.33 201.16 157.07C205.81 152.26 214.59 144.07 214.59 144.07L182.2 141.7" fill="#FFF7E1"/>
<path d="M114.67 0.669993C100.09 9.30999 64 30.67 53.21 36.94C52.2884 37.472 51.5249 38.2395 50.9978 39.1638C50.4706 40.0881 50.1987 41.136 50.21 42.2V190.36C49.99 193.36 53.41 196.18 56.21 194.59L116.88 160.05C119.32 158.65 120.88 156.68 120.88 153.87V4.19999C120.883 3.47315 120.692 2.75868 120.327 2.12979C119.963 1.50089 119.438 0.98017 118.806 0.620978C118.174 0.261786 117.458 0.0770328 116.731 0.0856456C116.005 0.0942584 115.293 0.295928 114.67 0.669993V0.669993Z" fill="#3A9C49"/>
<path d="M97.39 63.45C96.9307 63.4505 96.4722 63.4104 96.02 63.33C93.02 62.79 90.54 60.55 89.02 57.01C87.5932 53.299 87.2464 49.2598 88.02 45.36C89.63 36.36 95.64 30.17 101.72 31.25C104.72 31.79 107.2 34.03 108.72 37.57C110.147 41.281 110.494 45.3202 109.72 49.22V49.22C109.087 53.1484 107.353 56.8168 104.72 59.8C103.817 60.8822 102.699 61.7654 101.438 62.3937C100.176 63.0219 98.7978 63.3816 97.39 63.45V63.45ZM100.39 33.9C96.25 33.9 91.98 39.09 90.77 45.84C90.0901 49.2143 90.3778 52.7121 91.6 55.93C92.7 58.57 94.44 60.23 96.49 60.59C98.54 60.95 100.74 60 102.69 57.91C104.963 55.3211 106.457 52.142 107 48.74V48.74C107.68 45.3657 107.392 41.8679 106.17 38.65C105 36 103.3 34.35 101.25 34C100.97 33.945 100.685 33.9149 100.4 33.91L100.39 33.9Z" fill="#F2F2F2"/>
<path opacity="0.6" d="M62.26 52.84V177.21L75.65 168.69V45.11L62.26 52.84Z" fill="white"/>
<path d="M120.47 2.42998L101.16 13.58V17.7C101.156 18.0473 101.062 18.3876 100.887 18.6875C100.711 18.9873 100.461 19.2363 100.16 19.41L85.4 27.95C85.2011 28.0772 84.9712 28.1479 84.7351 28.1543C84.499 28.1608 84.2657 28.1028 84.06 27.9867C83.8544 27.8705 83.6843 27.7005 83.5681 27.495C83.4518 27.2894 83.3937 27.0561 83.4 26.82V23.82L55.71 40.06C55.4449 40.2154 55.2251 40.4374 55.0725 40.7041C54.9199 40.9707 54.8397 41.2727 54.84 41.58V189.65C54.8467 189.857 54.907 190.059 55.0151 190.236C55.1232 190.413 55.2753 190.559 55.4566 190.66C55.6379 190.761 55.8422 190.813 56.0496 190.811C56.257 190.809 56.4604 190.754 56.64 190.65L120.87 153.42C120.978 154.569 120.772 155.726 120.273 156.767C119.775 157.808 119.003 158.694 118.04 159.33C114.71 161.45 56.2 194.56 56.2 194.56C56.2 194.56 51.57 196.65 50.2 191.13V42.2C50.1979 41.2367 50.4243 40.2867 50.8606 39.428C51.2969 38.5692 51.9308 37.8262 52.71 37.26C55.39 35.31 114.66 0.669979 114.66 0.669979C115.154 0.389821 115.699 0.212938 116.264 0.150068C116.828 0.0871984 117.399 0.139654 117.942 0.30425C118.486 0.468846 118.99 0.742149 119.424 1.10757C119.859 1.47298 120.215 1.92289 120.47 2.42998V2.42998Z" fill="#124577"/>
<path d="M203 1.78999C216.91 10.5 251.9 30.79 263.83 38.06C266.53 39.72 266.94 42.19 266.99 45.36V193.43C266.255 194.286 265.238 194.851 264.122 195.021C263.007 195.192 261.867 194.957 260.91 194.36L202.2 161.19C199.28 159.47 196.98 157.7 196.98 154.31L197.49 4.47999C197.49 1.22999 200.27 0.0699926 203 1.78999Z" fill="#3A9C49"/>
<path d="M197.6 3.42L216.69 14.42V18.54C216.694 18.8873 216.788 19.2277 216.963 19.5275C217.139 19.8273 217.389 20.0763 217.69 20.25L232.46 28.78C232.659 28.9072 232.889 28.9779 233.125 28.9844C233.361 28.9908 233.594 28.9329 233.8 28.8167C234.006 28.7005 234.176 28.5305 234.292 28.325C234.408 28.1194 234.466 27.8861 234.46 27.65V24.65L262.19 40.91C262.455 41.0654 262.675 41.2874 262.827 41.5541C262.98 41.8208 263.06 42.1227 263.06 42.43V190.51C263.053 190.717 262.993 190.919 262.885 191.096C262.777 191.273 262.625 191.419 262.443 191.52C262.262 191.621 262.058 191.673 261.85 191.671C261.643 191.669 261.44 191.614 261.26 191.51L197 154.31C196.892 155.459 197.098 156.616 197.597 157.657C198.095 158.698 198.867 159.584 199.83 160.22C203.16 162.34 261.67 195.45 261.67 195.45C261.67 195.45 266.3 197.54 267.67 192.02V43.02C267.672 42.0568 267.446 41.1068 267.009 40.248C266.573 39.3892 265.939 38.6462 265.16 38.08C262.48 36.13 202.8 1.44 202.8 1.44C202.8 1.44 198.56 -0.470001 197.6 3.42Z" fill="#124577"/>
<path d="M125.16 239.63C137.25 239.63 147.05 233.89 147.05 226.81C147.05 219.73 137.25 213.99 125.16 213.99C113.07 213.99 103.27 219.73 103.27 226.81C103.27 233.89 113.07 239.63 125.16 239.63Z" fill="#FF912E"/>
<path d="M103.28 226.81V223.11L105.66 226.07L103.28 226.81Z" fill="#E0944F"/>
<path d="M147.05 223.11V226.81H144.28L146.31 223.84L147.05 223.11Z" fill="#E0944F"/>
<path d="M125.16 235.93C137.25 235.93 147.05 230.19 147.05 223.11C147.05 216.03 137.25 210.29 125.16 210.29C113.07 210.29 103.27 216.03 103.27 223.11C103.27 230.19 113.07 235.93 125.16 235.93Z" fill="#FFB92C"/>
<path d="M136.27 221.39C136.427 221.698 136.486 222.047 136.44 222.39L136.35 222.73H132.35C132.384 222.619 132.408 222.505 132.42 222.39C132.405 222.13 132.322 221.878 132.18 221.66C131.948 221.266 131.598 220.955 131.18 220.77C130.598 220.468 129.955 220.3 129.3 220.28C128.694 220.234 128.085 220.326 127.52 220.55C126.96 220.79 126.743 221.103 126.87 221.49C127.058 221.964 127.348 222.391 127.72 222.74C128.151 223.178 128.555 223.643 128.93 224.13C129.108 224.34 129.223 224.596 129.262 224.868C129.301 225.141 129.262 225.419 129.15 225.67C128.711 226.395 128.021 226.933 127.21 227.18C125.868 227.738 124.433 228.037 122.98 228.06C121.411 228.113 119.844 227.894 118.35 227.41L116.05 228.41L113.36 227.1L115.59 226.1C115.186 225.821 114.826 225.484 114.52 225.1C114.29 224.838 114.111 224.537 113.99 224.21C113.913 223.977 113.866 223.735 113.85 223.49C113.823 223.324 113.823 223.156 113.85 222.99L113.93 222.8H117.93C117.888 222.931 117.855 223.065 117.83 223.2C117.847 223.528 117.958 223.844 118.15 224.11C118.469 224.609 118.928 225.002 119.47 225.24C120.192 225.603 120.983 225.807 121.79 225.84C122.52 225.89 123.252 225.774 123.93 225.5C124.483 225.26 124.69 224.947 124.55 224.56C124.354 224.083 124.053 223.656 123.67 223.31C123.23 222.877 122.823 222.412 122.45 221.92C122.275 221.706 122.165 221.445 122.135 221.17C122.105 220.895 122.155 220.617 122.28 220.37C122.747 219.64 123.455 219.095 124.28 218.83C125.571 218.309 126.948 218.037 128.34 218.03C129.813 217.979 131.282 218.207 132.67 218.7L134.96 217.7L137.47 219.07L135.17 220.07C135.648 220.404 136.028 220.86 136.27 221.39V221.39Z" fill="#EA8B24"/>
<path d="M125.2 234.02C135.345 234.02 143.57 229.203 143.57 223.26C143.57 217.317 135.345 212.5 125.2 212.5C115.055 212.5 106.83 217.317 106.83 223.26C106.83 229.203 115.055 234.02 125.2 234.02Z" stroke="#F7931E" stroke-width="6" stroke-miterlimit="10"/>
<path d="M125.16 230.39C137.25 230.39 147.05 224.65 147.05 217.57C147.05 210.49 137.25 204.75 125.16 204.75C113.07 204.75 103.27 210.49 103.27 217.57C103.27 224.65 113.07 230.39 125.16 230.39Z" fill="#FF912E"/>
<path d="M103.28 217.57V213.86L105.66 216.82L103.28 217.57Z" fill="#E0944F"/>
<path d="M147.05 213.86V217.57H144.28L146.31 214.59L147.05 213.86Z" fill="#E0944F"/>
<path d="M125.16 226.68C137.25 226.68 147.05 220.94 147.05 213.86C147.05 206.78 137.25 201.04 125.16 201.04C113.07 201.04 103.27 206.78 103.27 213.86C103.27 220.94 113.07 226.68 125.16 226.68Z" fill="#FFB92C"/>
<path d="M136.27 212.15C136.427 212.458 136.486 212.807 136.44 213.15L136.35 213.49H132.35C132.384 213.379 132.408 213.265 132.42 213.15C132.405 212.89 132.322 212.638 132.18 212.42C131.948 212.026 131.598 211.715 131.18 211.53C130.598 211.228 129.955 211.06 129.3 211.04C128.694 210.994 128.085 211.086 127.52 211.31C126.96 211.55 126.743 211.863 126.87 212.25C127.058 212.724 127.348 213.151 127.72 213.5C128.151 213.938 128.555 214.403 128.93 214.89C129.108 215.1 129.223 215.356 129.262 215.628C129.301 215.901 129.262 216.179 129.15 216.43C128.711 217.155 128.021 217.693 127.21 217.94C125.868 218.498 124.433 218.797 122.98 218.82C121.411 218.873 119.844 218.654 118.35 218.17L116.05 219.17L113.36 217.86L115.59 216.86C115.186 216.581 114.826 216.244 114.52 215.86C114.29 215.598 114.111 215.297 113.99 214.97C113.913 214.737 113.866 214.495 113.85 214.25C113.823 214.084 113.823 213.916 113.85 213.75L113.93 213.56H117.93C117.888 213.691 117.855 213.825 117.83 213.96C117.847 214.288 117.958 214.604 118.15 214.87C118.469 215.369 118.928 215.762 119.47 216C120.192 216.363 120.983 216.567 121.79 216.6C122.52 216.65 123.252 216.534 123.93 216.26C124.483 216.02 124.69 215.707 124.55 215.32C124.354 214.843 124.053 214.416 123.67 214.07C123.23 213.637 122.823 213.172 122.45 212.68C122.275 212.466 122.165 212.205 122.135 211.93C122.105 211.655 122.155 211.377 122.28 211.13C122.747 210.4 123.455 209.855 124.28 209.59C125.571 209.069 126.948 208.797 128.34 208.79C129.813 208.739 131.282 208.967 132.67 209.46L134.96 208.46L137.47 209.83L135.17 210.83C135.648 211.164 136.028 211.62 136.27 212.15V212.15Z" fill="#EA8B24"/>
<path d="M125.2 224.78C135.345 224.78 143.57 219.963 143.57 214.02C143.57 208.077 135.345 203.26 125.2 203.26C115.055 203.26 106.83 208.077 106.83 214.02C106.83 219.963 115.055 224.78 125.2 224.78Z" stroke="#F7931E" stroke-width="2" stroke-miterlimit="10"/>
<path d="M125.13 224.96C137.22 224.96 147.02 219.22 147.02 212.14C147.02 205.06 137.22 199.32 125.13 199.32C113.04 199.32 103.24 205.06 103.24 212.14C103.24 219.22 113.04 224.96 125.13 224.96Z" fill="#FF912E"/>
<path d="M103.24 212.14V208.43L105.62 211.39L103.24 212.14Z" fill="#E0944F"/>
<path d="M147.01 208.43V212.14H144.24L146.27 209.16L147.01 208.43Z" fill="#E0944F"/>
<path d="M125.13 221.25C137.22 221.25 147.02 215.51 147.02 208.43C147.02 201.35 137.22 195.61 125.13 195.61C113.04 195.61 103.24 201.35 103.24 208.43C103.24 215.51 113.04 221.25 125.13 221.25Z" fill="#FFB92C"/>
<path d="M136.23 206.72C136.386 207.028 136.446 207.377 136.4 207.72L136.31 208.06H132.31C132.344 207.949 132.368 207.835 132.38 207.72C132.365 207.46 132.282 207.208 132.14 206.99C131.908 206.596 131.558 206.285 131.14 206.1C130.558 205.798 129.915 205.63 129.26 205.61C128.654 205.564 128.045 205.656 127.48 205.88C126.92 206.12 126.703 206.433 126.83 206.82C127.018 207.294 127.308 207.721 127.68 208.07C128.111 208.508 128.515 208.973 128.89 209.46C129.068 209.67 129.183 209.926 129.222 210.198C129.261 210.471 129.222 210.749 129.11 211C128.671 211.725 127.981 212.263 127.17 212.51C125.828 213.068 124.393 213.367 122.94 213.39C121.371 213.443 119.804 213.224 118.31 212.74L116.01 213.74L113.32 212.43L115.55 211.43C115.146 211.151 114.786 210.814 114.48 210.43C114.25 210.168 114.071 209.867 113.95 209.54C113.873 209.307 113.826 209.065 113.81 208.82C113.783 208.654 113.783 208.486 113.81 208.32L113.89 208.13H117.89C117.848 208.261 117.815 208.395 117.79 208.53C117.807 208.858 117.918 209.174 118.11 209.44C118.429 209.939 118.888 210.332 119.43 210.57C120.152 210.933 120.943 211.137 121.75 211.17C122.48 211.22 123.212 211.104 123.89 210.83C124.443 210.59 124.65 210.277 124.51 209.89C124.314 209.413 124.013 208.986 123.63 208.64C123.19 208.207 122.783 207.742 122.41 207.25C122.235 207.036 122.125 206.775 122.095 206.5C122.065 206.225 122.115 205.947 122.24 205.7C122.707 204.97 123.415 204.425 124.24 204.16C125.531 203.639 126.908 203.367 128.3 203.36C129.773 203.309 131.242 203.537 132.63 204.03L134.92 203.03L137.43 204.4L135.13 205.4C135.608 205.734 135.988 206.19 136.23 206.72V206.72Z" fill="#EA8B24"/>
<path d="M125.16 219.35C135.305 219.35 143.53 214.533 143.53 208.59C143.53 202.647 135.305 197.83 125.16 197.83C115.015 197.83 106.79 202.647 106.79 208.59C106.79 214.533 115.015 219.35 125.16 219.35Z" stroke="#F7931E" stroke-width="6" stroke-miterlimit="10"/>
<path d="M125.13 214.88C137.22 214.88 147.02 209.14 147.02 202.06C147.02 194.98 137.22 189.24 125.13 189.24C113.04 189.24 103.24 194.98 103.24 202.06C103.24 209.14 113.04 214.88 125.13 214.88Z" fill="#FF912E"/>
<path d="M103.24 202.06V198.36L105.62 201.32L103.24 202.06Z" fill="#E0944F"/>
<path d="M147.01 198.36V202.06H144.24L146.27 199.09L147.01 198.36Z" fill="#E0944F"/>
<path d="M125.13 211.18C137.22 211.18 147.02 205.44 147.02 198.36C147.02 191.28 137.22 185.54 125.13 185.54C113.04 185.54 103.24 191.28 103.24 198.36C103.24 205.44 113.04 211.18 125.13 211.18Z" fill="#FFB92C"/>
<path d="M136.23 196.65C136.386 196.958 136.446 197.307 136.4 197.65L136.31 197.99H132.31C132.344 197.879 132.368 197.765 132.38 197.65C132.365 197.39 132.282 197.138 132.14 196.92C131.908 196.526 131.558 196.215 131.14 196.03C130.558 195.728 129.915 195.56 129.26 195.54C128.654 195.494 128.045 195.586 127.48 195.81C126.92 196.05 126.703 196.363 126.83 196.75C127.018 197.224 127.308 197.651 127.68 198C128.111 198.438 128.515 198.903 128.89 199.39C129.068 199.6 129.183 199.856 129.222 200.128C129.261 200.401 129.222 200.679 129.11 200.93C128.671 201.655 127.981 202.193 127.17 202.44C125.828 202.998 124.393 203.297 122.94 203.32C121.371 203.373 119.804 203.154 118.31 202.67L116.01 203.67L113.32 202.36L115.55 201.36C115.146 201.081 114.786 200.744 114.48 200.36C114.25 200.098 114.071 199.797 113.95 199.47C113.873 199.237 113.826 198.995 113.81 198.75C113.783 198.584 113.783 198.416 113.81 198.25L113.89 198.06H117.89C117.848 198.191 117.815 198.325 117.79 198.46C117.807 198.788 117.918 199.104 118.11 199.37C118.429 199.869 118.888 200.262 119.43 200.5C120.152 200.863 120.943 201.067 121.75 201.1C122.48 201.15 123.212 201.034 123.89 200.76C124.443 200.52 124.65 200.207 124.51 199.82C124.314 199.343 124.013 198.916 123.63 198.57C123.19 198.137 122.783 197.672 122.41 197.18C122.235 196.966 122.125 196.705 122.095 196.43C122.065 196.155 122.115 195.877 122.24 195.63C122.707 194.9 123.415 194.355 124.24 194.09C125.531 193.569 126.908 193.297 128.3 193.29C129.773 193.239 131.242 193.467 132.63 193.96L134.92 192.96L137.43 194.33L135.13 195.33C135.608 195.664 135.988 196.12 136.23 196.65V196.65Z" fill="#EA8B24"/>
<path d="M125.16 209.28C135.305 209.28 143.53 204.463 143.53 198.52C143.53 192.577 135.305 187.76 125.16 187.76C115.015 187.76 106.79 192.577 106.79 198.52C106.79 204.463 115.015 209.28 125.16 209.28Z" stroke="#F7931E" stroke-width="2" stroke-miterlimit="10"/>
<path d="M116.57 203.91C128.66 203.91 138.46 198.17 138.46 191.09C138.46 184.01 128.66 178.27 116.57 178.27C104.48 178.27 94.68 184.01 94.68 191.09C94.68 198.17 104.48 203.91 116.57 203.91Z" fill="#FF912E"/>
<path d="M94.68 191.09V187.39L97.06 190.35L94.68 191.09Z" fill="#E0944F"/>
<path d="M138.46 187.39V191.09H135.68L137.72 188.12L138.46 187.39Z" fill="#E0944F"/>
<path d="M116.57 200.21C128.66 200.21 138.46 194.47 138.46 187.39C138.46 180.31 128.66 174.57 116.57 174.57C104.48 174.57 94.68 180.31 94.68 187.39C94.68 194.47 104.48 200.21 116.57 200.21Z" fill="#FFB92C"/>
<path d="M127.67 185.68C127.827 185.988 127.886 186.337 127.84 186.68L127.75 187.02H123.75C123.784 186.909 123.808 186.795 123.82 186.68C123.805 186.42 123.722 186.168 123.58 185.95C123.348 185.556 122.998 185.245 122.58 185.06C121.998 184.758 121.355 184.59 120.7 184.57C120.094 184.524 119.485 184.616 118.92 184.84C118.36 185.08 118.143 185.393 118.27 185.78C118.458 186.254 118.748 186.681 119.12 187.03C119.551 187.468 119.955 187.933 120.33 188.42C120.508 188.63 120.623 188.886 120.662 189.158C120.701 189.431 120.662 189.709 120.55 189.96C120.111 190.685 119.421 191.223 118.61 191.47C117.268 192.028 115.833 192.327 114.38 192.35C112.811 192.403 111.244 192.183 109.75 191.7L107.45 192.7L104.76 191.39L106.99 190.39C106.586 190.111 106.226 189.774 105.92 189.39C105.69 189.128 105.511 188.827 105.39 188.5C105.313 188.267 105.266 188.025 105.25 187.78C105.223 187.614 105.223 187.446 105.25 187.28L105.33 187.09H109.33C109.288 187.221 109.255 187.355 109.23 187.49C109.247 187.818 109.358 188.134 109.55 188.4C109.869 188.899 110.328 189.292 110.87 189.53C111.592 189.893 112.383 190.097 113.19 190.13C113.92 190.18 114.652 190.064 115.33 189.79C115.883 189.55 116.09 189.237 115.95 188.85C115.754 188.373 115.453 187.946 115.07 187.6C114.63 187.167 114.223 186.702 113.85 186.21C113.675 185.996 113.565 185.735 113.535 185.46C113.505 185.185 113.555 184.907 113.68 184.66C114.147 183.93 114.855 183.385 115.68 183.12C116.971 182.599 118.348 182.327 119.74 182.32C121.213 182.269 122.682 182.497 124.07 182.99L126.36 181.99L128.87 183.36L126.57 184.36C127.048 184.694 127.428 185.15 127.67 185.68V185.68Z" fill="#EA8B24"/>
<path d="M116.61 198.3C126.755 198.3 134.98 193.483 134.98 187.54C134.98 181.597 126.755 176.78 116.61 176.78C106.465 176.78 98.24 181.597 98.24 187.54C98.24 193.483 106.465 198.3 116.61 198.3Z" stroke="#F7931E" stroke-width="2" stroke-miterlimit="10"/>
<path d="M91.09 111.16C91.1695 110.487 91.2897 109.819 91.45 109.16" stroke="#2E3192" stroke-width="2" stroke-miterlimit="10" stroke-linecap="round"/>
<path d="M93.87 100.8C99.63 84.08 115.65 53.06 153.75 53.07C194.02 53.07 205.46 84.68 208.54 98.45" stroke="#2E3192" stroke-width="2" stroke-miterlimit="10" stroke-linecap="round" stroke-dasharray="3.89 8.74"/>
<path d="M209.35 102.75C209.54 104.01 209.6 104.75 209.6 104.75" stroke="#2E3192" stroke-width="2" stroke-miterlimit="10" stroke-linecap="round"/>
<path d="M207.9 105.26V105C207.899 104.415 208.052 103.84 208.345 103.333C208.638 102.826 209.06 102.406 209.567 102.114C210.075 101.823 210.65 101.671 211.236 101.674C211.821 101.676 212.395 101.834 212.9 102.13L244 120.32C244.502 120.612 244.919 121.031 245.208 121.535C245.498 122.038 245.65 122.609 245.65 123.19C245.653 123.776 245.501 124.353 245.209 124.861C244.916 125.369 244.495 125.791 243.987 126.083C243.479 126.376 242.903 126.529 242.317 126.526C241.731 126.524 241.156 126.367 240.65 126.07L209.53 108.14C209.03 107.844 208.617 107.423 208.331 106.918C208.045 106.412 207.896 105.841 207.9 105.26V105.26Z" fill="#124577"/>
<path d="M225.77 104.21C223.364 104.277 220.992 104.785 218.77 105.71C215.25 107.22 225.63 110.28 225.63 110.28" fill="#F2AE16"/>
<path d="M226.69 117.95C229.69 119.64 232.58 121.62 235.56 123.38C236.61 121.821 237.287 120.041 237.537 118.178C237.786 116.316 237.603 114.42 237 112.64C235 106.4 228.72 102.84 223 104.64C221.339 105.204 219.845 106.174 218.652 107.461C217.46 108.747 216.607 110.311 216.17 112.01C219.72 114 223.2 116 226.69 117.95Z" fill="#EA8B24"/>
<path d="M226.69 117.95C228.97 119.23 231.17 120.67 233.4 122.06C234.585 119.275 234.713 116.153 233.76 113.28C231.76 107.04 225.48 103.48 219.76 105.28C218.438 105.719 217.218 106.421 216.175 107.344C215.132 108.267 214.287 109.391 213.69 110.65C218.08 113 222.37 115.52 226.69 117.95Z" fill="#FFD008"/>
<path d="M227 117.59C228.87 118.59 230.68 119.8 232.51 120.95C233.515 118.529 233.615 115.828 232.79 113.34C231.02 107.87 225.54 104.75 220.55 106.34C219.404 106.72 218.345 107.326 217.438 108.123C216.531 108.92 215.794 109.892 215.27 110.98C219.23 113.16 223.12 115.39 227 117.59Z" stroke="#F7931E" stroke-miterlimit="10"/>
<path d="M226.69 117.95L227.28 118.29C227.293 117.702 227.114 117.127 226.77 116.65C226.425 116.202 225.966 115.857 225.44 115.65C224.913 115.437 224.39 115.25 223.87 115.09C223.407 114.954 222.963 114.759 222.55 114.51C222.389 114.424 222.254 114.296 222.161 114.139C222.067 113.982 222.019 113.803 222.02 113.62C222.019 113.46 222.057 113.301 222.13 113.159C222.203 113.016 222.309 112.893 222.44 112.8C222.75 112.567 223.133 112.453 223.52 112.48C223.894 112.489 224.26 112.585 224.59 112.76C224.834 112.873 225.063 113.018 225.27 113.19L225.52 113.46L226.94 112.01L226.69 111.74C226.437 111.494 226.151 111.285 225.84 111.12C225.416 110.878 224.957 110.703 224.48 110.6V109.09H222.48V110.58C221.671 110.682 220.922 111.06 220.36 111.65C219.839 112.186 219.545 112.903 219.54 113.65C219.534 113.773 219.534 113.897 219.54 114.02L226.69 117.95Z" fill="#EA8B24"/>
<path d="M156 33.55C151.858 33.7668 147.791 34.7395 144 36.42C138 39.17 156 44 156 44" fill="#F2AE16"/>
<path d="M164.788 73.237C174.561 69.8282 179.455 58.3861 175.721 47.6803C171.987 36.9745 161.037 31.0592 151.265 34.468C141.493 37.8769 136.598 49.319 140.332 60.0248C144.067 70.7305 155.016 76.6459 164.788 73.237Z" fill="#EA8B24"/>
<path d="M159.189 74.4823C168.962 71.0735 173.856 59.6313 170.122 48.9256C166.387 38.2198 155.438 32.3044 145.666 35.7133C135.893 39.1221 130.999 50.5642 134.733 61.27C138.468 71.9758 149.417 77.8911 159.189 74.4823Z" fill="#FFD008"/>
<path d="M158.353 72.084C166.92 69.0954 171.213 59.0676 167.941 49.6864C164.668 40.3051 155.07 35.1229 146.502 38.1115C137.935 41.1002 133.642 51.1279 136.914 60.5092C140.187 69.8904 149.785 75.0726 158.353 72.084Z" stroke="#F7931E" stroke-miterlimit="10"/>
<path d="M156.36 45.43C156.904 45.6915 157.409 46.0281 157.86 46.43L158.29 46.89L155.88 49.45C155.773 49.33 155.627 49.18 155.44 49C155.076 48.7131 154.676 48.4745 154.25 48.29C153.672 48.0013 153.036 47.8507 152.39 47.85C151.721 47.8216 151.065 48.0346 150.54 48.45C150.322 48.6192 150.146 48.8361 150.024 49.0839C149.903 49.3317 149.84 49.6041 149.84 49.88C149.849 50.2001 149.947 50.5113 150.124 50.7783C150.3 51.0452 150.549 51.2572 150.84 51.39C151.564 51.8214 152.34 52.1576 153.15 52.39C154.057 52.65 154.967 52.9533 155.88 53.3C156.782 53.6512 157.573 54.2384 158.17 55C158.846 55.8702 159.2 56.9482 159.17 58.05C159.202 59.4059 158.728 60.7251 157.84 61.75C156.853 62.8224 155.531 63.5276 154.09 63.75V66.36H150.59V63.91C149.907 63.8086 149.236 63.6343 148.59 63.39C148.033 63.1904 147.497 62.9358 146.99 62.63C146.602 62.3883 146.228 62.1246 145.87 61.84C145.621 61.6478 145.387 61.4372 145.17 61.21L144.95 60.94L147.37 58.52C147.49 58.66 147.663 58.84 147.89 59.06C148.343 59.4238 148.845 59.7233 149.38 59.95C150.133 60.3211 150.961 60.5128 151.8 60.51C152.614 60.5547 153.418 60.3103 154.07 59.82C154.329 59.613 154.536 59.3494 154.677 59.0494C154.817 58.7494 154.887 58.4212 154.88 58.09C154.871 57.7688 154.773 57.4564 154.596 57.1879C154.419 56.9194 154.171 56.7055 153.88 56.57C153.155 56.1337 152.375 55.7973 151.56 55.57C150.647 55.3167 149.737 55.0167 148.83 54.67C147.921 54.3314 147.12 53.7546 146.51 53C145.834 52.1298 145.48 51.0518 145.51 49.95C145.499 48.6757 145.975 47.4453 146.84 46.51C147.789 45.4694 149.067 44.7877 150.46 44.58V42H154V44.61C154.824 44.7615 155.62 45.038 156.36 45.43V45.43Z" fill="#EA8B24"/>
<path d="M112.41 99.17V98.93C112.411 98.3447 112.258 97.7695 111.965 97.2627C111.672 96.7559 111.25 96.3355 110.743 96.0442C110.235 95.7528 109.66 95.6008 109.074 95.6036C108.489 95.6064 107.915 95.7638 107.41 96.06L76.3 114.23C75.7979 114.522 75.3813 114.941 75.0918 115.445C74.8022 115.948 74.6499 116.519 74.65 117.1V117.1C74.6471 117.686 74.7994 118.263 75.0915 118.771C75.3836 119.279 75.805 119.701 76.3129 119.993C76.8208 120.286 77.3971 120.439 77.9832 120.436C78.5694 120.434 79.1444 120.277 79.65 119.98L110.75 102C111.248 101.712 111.663 101.3 111.954 100.804C112.245 100.308 112.402 99.7451 112.41 99.17V99.17Z" fill="#124577"/>
<path d="M94.54 98.11C96.9455 98.1769 99.3183 98.6854 101.54 99.61C105.06 101.12 94.68 104.18 94.68 104.18" fill="#F2AE16"/>
<path d="M93.62 111.85C90.62 113.54 87.73 115.52 84.75 117.28C83.6979 115.722 83.0196 113.943 82.7681 112.08C82.5166 110.217 82.6987 108.321 83.3 106.54C85.3 100.3 91.58 96.74 97.3 98.54C98.9661 99.1169 100.461 100.102 101.649 101.405C102.837 102.708 103.679 104.288 104.1 106C100.59 107.89 97.12 109.89 93.62 111.85Z" fill="#EA8B24"/>
<path d="M93.62 111.85C91.34 113.13 89.14 114.57 86.91 115.96C85.725 113.175 85.597 110.053 86.55 107.18C88.55 100.94 94.83 97.38 100.55 99.18C101.872 99.6186 103.092 100.321 104.135 101.244C105.178 102.167 106.023 103.291 106.62 104.55C102.23 107 97.94 109.43 93.62 111.85Z" fill="#FFD008"/>
<path d="M93.28 111.49C91.41 112.49 89.6 113.7 87.77 114.85C86.7648 112.429 86.6654 109.728 87.49 107.24C89.26 101.77 94.74 98.65 99.73 100.24C100.876 100.62 101.935 101.226 102.842 102.023C103.749 102.82 104.486 103.792 105.01 104.88C101.08 107.06 97.19 109.3 93.28 111.49Z" stroke="#F7931E" stroke-miterlimit="10"/>
<path d="M93.62 111.85L93.03 112.19C93.017 111.602 93.196 111.027 93.54 110.55C93.8846 110.102 94.3443 109.757 94.87 109.55C95.3967 109.337 95.92 109.15 96.44 108.99C96.9029 108.854 97.3465 108.659 97.76 108.41C97.9212 108.324 98.0558 108.196 98.1492 108.039C98.2426 107.882 98.2913 107.703 98.29 107.52C98.2908 107.36 98.2531 107.201 98.18 107.059C98.107 106.916 98.0006 106.793 97.87 106.7C97.5603 106.467 97.1768 106.353 96.79 106.38C96.4164 106.389 96.0501 106.485 95.72 106.66C95.4757 106.773 95.2471 106.918 95.04 107.09L94.79 107.36L93.37 105.91L93.62 105.64C93.8726 105.394 94.1588 105.185 94.47 105.02C94.894 104.778 95.3527 104.603 95.83 104.5V102.99H97.83V104.48C98.6388 104.582 99.3876 104.96 99.95 105.55C100.471 106.086 100.765 106.803 100.77 107.55C100.776 107.673 100.776 107.797 100.77 107.92L93.62 111.85Z" fill="#EA8B24"/>
<path d="M147.75 150.66C147.75 150.66 143.61 147.66 142.06 148.09C140.51 148.52 139.91 165.81 140.98 166.86C142.05 167.91 145.68 171.86 147.75 171.02C149.82 170.18 151.02 166.86 151.02 166.86" fill="#EF9841"/>
<path d="M185.78 140.08L161.13 141.59L165.78 158.92L149.89 146.92C146.8 150.22 147.31 153.74 147.15 158.08C146.957 160.91 147.238 163.752 147.98 166.49C148.07 166.78 148.17 167.07 148.27 167.36C149.75 168.72 151.48 169.92 152.66 170.85C155.52 173.11 158.28 175.46 161.09 177.78C165.09 181.04 168.83 184.17 173.84 185.67C178.85 187.17 187.65 183.42 188.67 177.56C190.5 167.08 187.25 150.54 185.78 140.08Z" fill="#FFF7E1"/>
<path d="M163.58 98.21C162.64 96.56 159.69 94.39 157.98 96.29C157.646 96.7014 157.49 97.2282 157.544 97.755C157.598 98.2817 157.859 98.7655 158.27 99.1C159.16 99.94 160.6 100.17 161.72 100.51C161.857 100.551 162.002 100.559 162.143 100.533C162.284 100.508 162.417 100.449 162.531 100.362C162.645 100.276 162.737 100.163 162.799 100.034C162.862 99.9051 162.893 99.7633 162.89 99.62C163.038 99.5881 163.176 99.5231 163.295 99.4299C163.414 99.3368 163.51 99.2179 163.577 99.0822C163.643 98.9465 163.678 98.7975 163.678 98.6465C163.679 98.4954 163.645 98.3462 163.58 98.21V98.21Z" fill="#FBB5AD"/>
<path d="M184.62 129.53L159.35 123.31C159.35 123.31 160.14 134.31 161.12 141.59C165.64 143.59 171.12 143.59 175.95 142.88C179.357 142.485 182.677 141.54 185.78 140.08C186.788 139.558 187.754 138.96 188.67 138.29C188.27 135.64 184.93 132.2 184.62 129.53Z" fill="#F47A63"/>
<path d="M190.41 134.85C190.41 136.85 189.88 141.72 189.77 143.7C179.13 140.86 156.07 133.16 154.53 117.3C154.297 115.144 154.554 112.963 155.28 110.92C156.62 108.76 158.81 107 160.59 105.34C163.3 102.81 166.67 100.27 170.41 99.6C175.01 98.78 178.64 101.76 181.94 104.88C183.18 107.75 179.6 110.57 180.07 113.5L186.5 132.82L190.42 134.82" fill="#F47A63"/>
<path d="M170.51 92.84C170.51 92.84 173.31 105.84 169.02 107.46C164.73 109.08 160.38 106.12 159.63 103.67C159.182 101.638 159.08 99.5455 159.33 97.48C159.33 97.48 162.52 92.89 170.51 92.84Z" fill="#FBB5AD"/>
<path d="M171 90.53C171.14 87.38 166.73 85.38 164.7 88.05C164.19 87.6082 163.588 87.2849 162.938 87.1033C162.288 86.9218 161.605 86.8865 160.94 87C159.07 87.32 158.42 88.64 158.58 90.4C158.042 90.3922 157.51 90.5113 157.027 90.7476C156.544 90.9839 156.124 91.3307 155.8 91.76C155.437 92.2769 155.242 92.8933 155.242 93.525C155.242 94.1568 155.437 94.7731 155.8 95.29C155.139 95.5554 154.589 96.0374 154.238 96.657C153.887 97.2766 153.757 97.997 153.87 98.7C153.931 99.3577 154.162 99.9882 154.54 100.53C154.457 100.729 154.397 100.937 154.36 101.15C154.273 101.732 154.36 102.327 154.609 102.861C154.858 103.394 155.258 103.842 155.76 104.15C156.35 104.547 157.049 104.753 157.76 104.74C157.992 105.188 158.346 105.561 158.782 105.816C159.217 106.071 159.716 106.197 160.22 106.18C160.852 106.155 161.452 105.899 161.908 105.46C162.363 105.021 162.641 104.43 162.69 103.8C162.712 103.461 162.664 103.12 162.55 102.8C163.141 101.493 163.25 100.02 162.86 98.64C163.051 98.578 163.233 98.4906 163.4 98.38C163.906 98.0191 164.261 97.4855 164.4 96.88C164.992 97.0947 165.63 97.1498 166.25 97.04C166.543 96.9779 166.815 96.8398 167.037 96.6398C167.26 96.4397 167.427 96.1846 167.52 95.9C168.333 96.1152 169.191 96.0816 169.985 95.8035C170.778 95.5253 171.47 95.0155 171.97 94.34C172.294 93.6945 172.374 92.9539 172.196 92.254C172.018 91.5541 171.593 90.942 171 90.53V90.53Z" fill="#D86212"/>
<path d="M163.63 101.75C163.55 101.343 163.389 100.957 163.158 100.613C162.926 100.27 162.627 99.9762 162.28 99.75C162.114 99.6083 161.921 99.5013 161.713 99.4355C161.505 99.3697 161.286 99.3464 161.068 99.3669C160.851 99.3874 160.64 99.4514 160.448 99.555C160.256 99.6586 160.087 99.7997 159.95 99.97C159.74 100.298 159.638 100.684 159.658 101.073C159.677 101.462 159.818 101.835 160.06 102.14C160.63 102.89 161.57 102.89 162.38 103.23C162.86 103.43 163.16 102.94 163.05 102.53C163.143 102.525 163.233 102.5 163.315 102.456C163.397 102.413 163.468 102.351 163.524 102.277C163.579 102.202 163.618 102.116 163.636 102.025C163.654 101.934 163.652 101.84 163.63 101.75V101.75Z" fill="#FBB5AD"/>
<path d="M169.62 98.5C169.56 98.2 169.1 98.33 169.16 98.63L169.56 100.63C169.647 100.937 169.708 101.252 169.74 101.57C169.74 102.13 169.46 102.24 169.04 102.49C168.995 102.526 168.964 102.577 168.954 102.634C168.943 102.69 168.953 102.749 168.982 102.799C169.012 102.849 169.058 102.886 169.112 102.905C169.167 102.923 169.227 102.922 169.28 102.9C169.83 102.57 170.28 102.4 170.28 101.71C170.126 100.627 169.906 99.5554 169.62 98.5V98.5Z" fill="#56403D"/>
<path d="M170.73 97.94C170.666 97.94 170.605 97.9653 170.56 98.0103C170.515 98.0553 170.49 98.1163 170.49 98.18C170.49 98.2437 170.515 98.3047 170.56 98.3497C170.605 98.3947 170.666 98.42 170.73 98.42C170.794 98.42 170.855 98.3947 170.9 98.3497C170.945 98.3047 170.97 98.2437 170.97 98.18C170.97 98.1163 170.945 98.0553 170.9 98.0103C170.855 97.9653 170.794 97.94 170.73 97.94V97.94Z" fill="#56403D"/>
<path d="M166.12 99.5C166.056 99.5 165.995 99.5253 165.95 99.5703C165.905 99.6153 165.88 99.6763 165.88 99.74C165.88 99.8036 165.905 99.8647 165.95 99.9097C165.995 99.9547 166.056 99.98 166.12 99.98C166.184 99.98 166.245 99.9547 166.29 99.9097C166.335 99.8647 166.36 99.8036 166.36 99.74C166.36 99.6763 166.335 99.6153 166.29 99.5703C166.245 99.5253 166.184 99.5 166.12 99.5Z" fill="#56403D"/>
<path d="M168.56 103.85C168.194 104.008 167.783 104.027 167.404 103.904C167.024 103.78 166.703 103.523 166.5 103.18C166.464 103.135 166.413 103.104 166.356 103.094C166.3 103.083 166.241 103.093 166.191 103.122C166.141 103.152 166.104 103.198 166.085 103.252C166.067 103.307 166.068 103.367 166.09 103.42C166.358 103.87 166.783 104.206 167.283 104.363C167.783 104.519 168.323 104.486 168.8 104.27C169.08 104.14 168.84 103.73 168.56 103.85Z" fill="#56403D"/>
<path d="M197.91 132C197.347 132.001 196.796 132.164 196.323 132.468C195.849 132.773 195.474 133.208 195.24 133.72C194.86 134.38 194.6 135.09 194.17 135.72C193.46 136.72 192.89 136.34 191.87 135.86C190.85 135.38 189.79 136.99 190.87 137.51C191.731 138.058 192.706 138.4 193.72 138.51C194.034 138.442 194.332 138.31 194.593 138.123C194.855 137.935 195.075 137.696 195.24 137.42C195.279 137.576 195.361 137.719 195.475 137.832C195.59 137.945 195.734 138.025 195.891 138.062C196.047 138.099 196.211 138.092 196.365 138.043C196.518 137.993 196.655 137.902 196.76 137.78C197.6 136.78 198.81 135.6 199.15 134.3C199.245 134.069 199.287 133.819 199.274 133.57C199.261 133.32 199.193 133.077 199.074 132.857C198.955 132.637 198.789 132.446 198.588 132.298C198.387 132.15 198.155 132.048 197.91 132Z" fill="#FBB5AD"/>
<path d="M203.68 139.69C199.273 138.203 194.86 136.733 190.44 135.28C190.17 137.52 190.03 139.77 189.85 142.01C191.735 144.299 193.925 146.318 196.36 148.01C196.521 148.1 196.702 148.146 196.887 148.145C197.071 148.144 197.252 148.095 197.412 148.004C197.572 147.912 197.705 147.781 197.8 147.623C197.894 147.464 197.946 147.284 197.95 147.1C197.906 146.682 197.788 146.276 197.6 145.9C198.501 146.5 199.468 146.996 200.48 147.38C200.701 147.424 200.93 147.397 201.135 147.303C201.34 147.209 201.51 147.053 201.621 146.857C201.731 146.661 201.778 146.435 201.752 146.211C201.727 145.987 201.632 145.777 201.48 145.61L200.6 144.89C201.343 145.018 202.099 145.052 202.85 144.99C203.97 144.89 204.38 143.19 203.13 142.91C202.63 142.8 202.13 142.65 201.66 142.5C202.55 142.387 203.395 142.042 204.11 141.5C204.81 140.93 204.36 139.92 203.68 139.69Z" fill="#FBB5AD"/>
<path d="M198.92 104.22C198.138 104.497 197.421 104.933 196.816 105.501C196.211 106.068 195.73 106.756 195.404 107.519C195.078 108.282 194.913 109.104 194.921 109.934C194.929 110.764 195.109 111.583 195.45 112.34C195.509 112.499 195.62 112.634 195.765 112.723C195.91 112.812 196.081 112.85 196.25 112.83C196.286 112.018 196.493 111.223 196.859 110.498C197.224 109.772 197.739 109.132 198.37 108.62H198.43C199.37 107.83 200.57 107.11 200.92 106.16C201.44 104.68 200.29 103.75 198.92 104.22Z" fill="#FBB5AD"/>
<path d="M187.75 146.84C187.61 146.09 186.47 146.41 186.61 147.16C187.675 152.758 188.433 158.409 188.88 164.09C188.94 164.85 190.13 164.85 190.07 164.09C189.612 158.302 188.838 152.543 187.75 146.84V146.84Z" fill="#18696D"/>
<path d="M170.62 175.53C168.892 170.369 167.499 165.101 166.45 159.76C166.3 159.01 165.16 159.33 165.31 160.08C166.359 165.421 167.752 170.689 169.48 175.85C169.72 176.56 170.87 176.25 170.62 175.53Z" fill="#18696D"/>
<path d="M181.56 141.46C173.062 138.92 165.396 134.16 159.35 127.67C158.96 127.25 158.35 127.88 158.72 128.3C164.876 134.891 172.677 139.723 181.32 142.3C181.426 142.317 181.535 142.294 181.626 142.237C181.716 142.179 181.783 142.09 181.812 141.986C181.842 141.883 181.832 141.772 181.786 141.675C181.739 141.578 181.659 141.502 181.56 141.46V141.46Z" fill="#AF3E2F"/>
<path d="M190.9 134.33C185.004 131.928 179.433 128.794 174.32 125C173.86 124.66 173.42 125.43 173.87 125.77C179.052 129.585 184.692 132.733 190.66 135.14C191.2 135.4 191.43 134.54 190.9 134.33Z" fill="#AF3E2F"/>
<path d="M185.36 126.45L181.25 114C181.07 113.46 180.25 113.69 180.39 114.24L184.5 126.72C184.69 127.23 185.54 127 185.36 126.45Z" fill="#AF3E2F"/>
<path d="M242.39 64.91C243.79 76.06 238.64 85.78 230.89 86.62C223.14 87.46 215.73 79.09 214.33 67.94C212.93 56.79 218.08 47.07 225.83 46.23C233.58 45.39 241 53.76 242.39 64.91Z" fill="#124577"/>
<path d="M218.63 67.67L220.91 64.08L224.99 70.31L234.06 56.3L237.65 59.24L225.34 77.91L218.63 67.67Z" fill="white"/>
</svg>
